<?xml version="1.0" encoding="UTF-8"?>
<svg id="Layer_1" xmlns="http://www.w3.org/2000/svg" version="1.1" viewBox="0 0 26 33">
  <!-- Generator: Adobe Illustrator 29.4.0, SVG Export Plug-In . SVG Version: 2.1.0 Build 152)  -->
  <defs>
    <style>
      .st0, .st1, .st2, .st3 {
        fill: none;
        stroke: #292d32;
        stroke-linecap: round;
        stroke-linejoin: round;
      }

      .st0, .st3 {
        stroke-width: .5px;
      }

      .st1, .st2 {
        stroke-width: 1.5px;
      }

      .st2, .st3 {
        isolation: isolate;
        opacity: .4;
      }
    </style>
  </defs>
  <path class="st1" d="M-235,8.8v15.5c0,6.2-1.5,7.8-7.5,7.8h-9c-6,0-7.5-1.5-7.5-7.8v-15.5c0-6.2,1.5-7.8,7.5-7.8h9c6,0,7.5,1.5,7.5,7.8Z"/>
  <path class="st2" d="M-244,6.4h-6"/>
  <path class="st2" d="M-247,27.5c1.3,0,2.3-1.1,2.3-2.4s-1-2.4-2.3-2.4-2.3,1.1-2.3,2.4,1,2.4,2.3,2.4Z"/>
  <g>
    <path class="st0" d="M17.4,13.7v5.7c0,2.3-.5,2.8-2.7,2.8h-3.3c-2.2,0-2.7-.5-2.7-2.8v-5.7c0-2.3.5-2.8,2.7-2.8h3.3c2.2,0,2.7.5,2.7,2.8Z"/>
    <path class="st3" d="M15.9,13.9h-5.7"/>
    <path class="st3" d="M15.9,16.6v3.2"/>
    <path class="st3" d="M11.9,16.4h-1.7"/>
    <path class="st3" d="M14.5,16.4h-1.7"/>
    <path class="st3" d="M11.9,17.5h-1.7"/>
    <path class="st3" d="M14.5,17.5h-1.7"/>
    <path class="st3" d="M11.9,18.6h-1.7"/>
    <path class="st3" d="M14.5,18.6h-1.7"/>
    <path class="st3" d="M11.9,19.7h-1.7"/>
    <path class="st3" d="M14.5,19.7h-1.7"/>
  </g>
  <g>
    <path class="st1" d="M-155,10.9h-6.5c-2.6,0-3.2-.6-3.2-3v-3.6c0-2.4.6-3,3.2-3h6.5c2.6,0,3.2.6,3.2,3v3.6c0,2.4-.6,3-3.2,3Z"/>
    <path class="st1" d="M-155,32h-6.5c-2.6,0-3.2-1-3.2-5.2v-6.2c0-4.1.6-5.2,3.2-5.2h6.5c2.6,0,3.2,1,3.2,5.2v6.2c0,4.1-.6,5.2-3.2,5.2Z"/>
    <path class="st1" d="M-143.9,22.4h6.5c2.6,0,3.2.6,3.2,3v3.6c0,2.4-.6,3-3.2,3h-6.5c-2.6,0-3.2-.6-3.2-3v-3.6c0-2.4.6-3,3.2-3Z"/>
    <path class="st1" d="M-143.9,1.3h6.5c2.6,0,3.2,1,3.2,5.2v6.2c0,4.1-.6,5.2-3.2,5.2h-6.5c-2.6,0-3.2-1-3.2-5.2v-6.2c0-4.1.6-5.2,3.2-5.2Z"/>
  </g>
  <g>
    <path d="M-137.2-20h-.9l-.8-2.7c0-.3-.4-.5-.7-.5h-9.2c-.3,0-.6.2-.7.5l-.8,2.7h-.9c-.4,0-.7.3-.7.7s.3.7.7.7h13.8c.4,0,.7-.3.7-.7s-.3-.7-.7-.7ZM-148.7-20l.5-1.8h8.2l.5,1.8h-9.2Z"/>
    <path d="M-145.9-29.1l-.2.2c-.3.3-.3.7,0,1l2,2c.3.3.7.3,1,0l5.2-5.2c.3-.3.3-.7,0-1l-2-2c-.3-.3-.7-.3-1,0l-.2.2-4.9-4.9.2-.2c.3-.3.3-.7,0-1l-2-2c-.3-.3-.7-.3-1,0l-5.2,5.2c-.3.3-.3.7,0,1l2,2c.3.3.7.3,1,0l.2-.2,1,1-6.7,6.7-2.9,2.9c-.8.8-.8,2.1,0,2.9.8.8,2.1.8,2.9,0l9.6-9.6,1,1ZM-140.4-32.7l1,1-4.2,4.2-1-1,4.2-4.2ZM-142-33l-2.9,2.9-4.9-4.9,2.9-2.9,4.9,4.9ZM-151.5-35.3l-1-1,4.2-4.2,1,1-4.2,4.2ZM-157.5-21.4c-.3.3-.7.3-1,0s-.3-.7,0-1l.5-.5,1,1-.5.5ZM-156-22.9l-1-1,1-1,1,1-1,1ZM-154.1-24.9l-1-1,6.2-6.2,1,1-6.2,6.2Z"/>
  </g>
</svg>