<?xml version="1.0" encoding="UTF-8"?>
<svg id="Layer_1" xmlns="http://www.w3.org/2000/svg" version="1.1" viewBox="0 0 26 33">
  <!-- Generator: Adobe Illustrator 29.4.0, SVG Export Plug-In . SVG Version: 2.1.0 Build 152)  -->
  <defs>
    <style>
      .st0 {
        stroke-width: .2px;
      }

      .st0, .st1, .st2, .st3, .st4, .st5 {
        fill: none;
        stroke: #292d32;
        stroke-linecap: round;
        stroke-linejoin: round;
      }

      .st1, .st3, .st5 {
        stroke-width: .5px;
      }

      .st6, .st3, .st4, .st5 {
        isolation: isolate;
      }

      .st6, .st4, .st5 {
        opacity: .4;
      }

      .st2, .st4 {
        stroke-width: 1.5px;
      }
    </style>
  </defs>
  <path class="st2" d="M-235,8.8v15.5c0,6.2-1.5,7.8-7.5,7.8h-9c-6,0-7.5-1.5-7.5-7.8v-15.5c0-6.2,1.5-7.8,7.5-7.8h9c6,0,7.5,1.5,7.5,7.8Z"/>
  <g>
    <path class="st1" d="M13.7,11.7l2.7,2.7c1.1,1.1,1.2,1.5.6,2.1l-.9.9c-.6.6-1,.5-2.1-.6l-2.7-2.7c-1.1-1.1-1.2-1.5-.6-2.1l.9-.9c.6-.6,1-.5,2.1.6Z"/>
    <path class="st1" d="M11.7,17.4l-2.7,2.7c-1.1,1.1-1.4,1.3-1.7,1l-.4-.4c-.3-.3,0-.6,1-1.7l2.7-2.7c1.1-1.1,1.4-1.3,1.7-1l.4.4c.3.3,0,.6-1,1.7Z"/>
    <path class="st1" d="M19.1,21.2c0,.8-.3,1.1-1.7,1.1h-3.3c-1.3,0-1.7-.2-1.7-1.1"/>
    <path class="st1" d="M13.7,22v-1c0-.7.2-.8,1.1-.8h2.1c.8,0,1.1.2,1.1.8v1"/>
    <path class="st5" d="M13.2,11.4l-2.2,2.2"/>
    <path class="st5" d="M16.6,14.9l-2.2,2.2"/>
    <path class="st5" d="M8.4,20.5l-.9-.9"/>
    <path class="st5" d="M9,19.8l-.9-.9"/>
  </g>
  <path class="st4" d="M-247,27.5c1.3,0,2.3-1.1,2.3-2.4s-1-2.4-2.3-2.4-2.3,1.1-2.3,2.4,1,2.4,2.3,2.4Z"/>
  <g>
    <path class="st1" d="M-10.1,13.7v5.7c0,2.3-.5,2.8-2.7,2.8h-3.3c-2.2,0-2.7-.5-2.7-2.8v-5.7c0-2.3.5-2.8,2.7-2.8h3.3c2.2,0,2.7.5,2.7,2.8Z"/>
    <path class="st5" d="M-11.6,13.9h-5.7"/>
    <path class="st5" d="M-11.6,16.6v3.2"/>
    <path class="st5" d="M-15.6,16.4h-1.7"/>
    <path class="st5" d="M-13,16.4h-1.7"/>
    <path class="st5" d="M-15.6,17.5h-1.7"/>
    <path class="st5" d="M-13,17.5h-1.7"/>
    <path class="st5" d="M-15.6,18.6h-1.7"/>
    <path class="st5" d="M-13,18.6h-1.7"/>
    <path class="st5" d="M-15.6,19.7h-1.7"/>
    <path class="st5" d="M-13,19.7h-1.7"/>
  </g>
  <g>
    <path class="st1" d="M-30.6,20.2h-7.7c-3.1,0-3.9-.6-3.9-2.9v-3.5c0-2.3.7-2.9,3.9-2.9h7.7c3.1,0,3.9.6,3.9,2.9v3.5c0,2.3-.7,2.9-3.9,2.9Z"/>
    <g>
      <path class="st3" d="M-34.8,22v-1.6"/>
      <path class="st3" d="M-34.1,22v-1.6"/>
    </g>
    <path class="st3" d="M-37.1,22.1h5.2"/>
    <g class="st6">
      <path class="st0" d="M-32.7,14.4v-1.4c0-.6.2-.7.9-.7h1.1c.7,0,.9.1.9.7v1.4c0,.6-.2.7-.9.7h-1.1c-.7,0-.9-.1-.9-.7Z"/>
      <path class="st0" d="M-39.1,14.4v-1.4c0-.6.3-.7,1.6-.7h1.9c1.3,0,1.6.1,1.6.7v1.4c0,.6-.3.7-1.6.7h-1.9c-1.3,0-1.6-.1-1.6-.7Z"/>
      <path class="st0" d="M-36.2,16.8v1.4c0,.6-.2.7-.9.7h-1.1c-.7,0-.9-.1-.9-.7v-1.4c0-.6.2-.7.9-.7h1.1c.7,0,.9.1.9.7Z"/>
      <path class="st0" d="M-29.8,16.8v1.4c0,.6-.3.7-1.6.7h-1.9c-1.3,0-1.6-.1-1.6-.7v-1.4c0-.6.3-.7,1.6-.7h1.9c1.3,0,1.6.1,1.6.7Z"/>
    </g>
  </g>
  <g>
    <path d="M-137.2-20h-.9l-.8-2.7c0-.3-.4-.5-.7-.5h-9.2c-.3,0-.6.2-.7.5l-.8,2.7h-.9c-.4,0-.7.3-.7.7s.3.7.7.7h13.8c.4,0,.7-.3.7-.7s-.3-.7-.7-.7ZM-148.7-20l.5-1.8h8.2l.5,1.8h-9.2Z"/>
    <path d="M-145.9-29.1l-.2.2c-.3.3-.3.7,0,1l2,2c.3.3.7.3,1,0l5.2-5.2c.3-.3.3-.7,0-1l-2-2c-.3-.3-.7-.3-1,0l-.2.2-4.9-4.9.2-.2c.3-.3.3-.7,0-1l-2-2c-.3-.3-.7-.3-1,0l-5.2,5.2c-.3.3-.3.7,0,1l2,2c.3.3.7.3,1,0l.2-.2,1,1-6.7,6.7-2.9,2.9c-.8.8-.8,2.1,0,2.9.8.8,2.1.8,2.9,0l9.6-9.6,1,1ZM-140.4-32.7l1,1-4.2,4.2-1-1,4.2-4.2ZM-142-33l-2.9,2.9-4.9-4.9,2.9-2.9,4.9,4.9ZM-151.5-35.3l-1-1,4.2-4.2,1,1-4.2,4.2ZM-157.5-21.4c-.3.3-.7.3-1,0s-.3-.7,0-1l.5-.5,1,1-.5.5ZM-156-22.9l-1-1,1-1,1,1-1,1ZM-154.1-24.9l-1-1,6.2-6.2,1,1-6.2,6.2Z"/>
  </g>
</svg>