<svg width="150" height="35" viewBox="0 0 150 35" fill="none" xmlns="http://www.w3.org/2000/svg">
<path d="M48.9604 26.8843C47.9257 26.8843 46.9311 26.7237 45.9766 26.4026C45.0311 26.0726 44.2015 25.6043 43.4879 24.9977C42.7743 24.3822 42.2614 23.6463 41.9492 22.79L45.0133 21.6661C45.1381 22.0229 45.3924 22.3485 45.7759 22.6428C46.1595 22.9372 46.6278 23.1736 47.1808 23.352C47.7339 23.5304 48.3271 23.6196 48.9604 23.6196C49.6116 23.6196 50.2181 23.5214 50.7801 23.3252C51.351 23.12 51.8104 22.8391 52.1582 22.4823C52.5061 22.1165 52.6801 21.6928 52.6801 21.2111C52.6801 20.7205 52.4972 20.3191 52.1315 20.0069C51.7658 19.6858 51.2975 19.4316 50.7266 19.2443C50.1557 19.0569 49.567 18.9142 48.9604 18.8161C47.6313 18.6109 46.4405 18.2943 45.3879 17.8661C44.3353 17.438 43.5013 16.8448 42.8858 16.0866C42.2793 15.3284 41.976 14.3471 41.976 13.1429C41.976 12.0101 42.3016 11.02 42.9527 10.1726C43.6039 9.32515 44.4602 8.66506 45.5217 8.1923C46.5832 7.71954 47.7294 7.48315 48.9604 7.48315C49.9862 7.48315 50.9763 7.64372 51.9308 7.96484C52.8852 8.28596 53.7192 8.75426 54.4329 9.36975C55.1554 9.98523 55.6727 10.7256 55.9849 11.5908L52.9075 12.7014C52.7826 12.3446 52.5284 12.019 52.1449 11.7246C51.7613 11.4303 51.293 11.1984 50.7399 11.0289C50.1869 10.8505 49.5937 10.7613 48.9604 10.7613C48.3271 10.7524 47.725 10.8549 47.1541 11.069C46.5921 11.2742 46.1327 11.5552 45.7759 11.912C45.4191 12.2688 45.2407 12.6791 45.2407 13.1429C45.2407 13.7406 45.4057 14.191 45.7358 14.4943C46.0748 14.7976 46.5252 15.0206 47.0872 15.1633C47.6491 15.2971 48.2735 15.422 48.9604 15.538C50.2092 15.7342 51.3644 16.0643 52.4258 16.5281C53.4873 16.9919 54.3392 17.6119 54.9814 18.3879C55.6237 19.1551 55.9448 20.0961 55.9448 21.2111C55.9448 22.344 55.6237 23.3386 54.9814 24.1949C54.3392 25.0423 53.4873 25.7024 52.4258 26.1752C51.3644 26.6479 50.2092 26.8843 48.9604 26.8843Z" fill="white"/>
<path d="M65.774 16.4211H63.1782V26.5364H59.9135V16.4211H57.9332V13.1563H59.9135V8.95497H63.1782V13.1563H65.774V16.4211Z" fill="white"/>
<path d="M68.2064 26.5364L68.193 13.1563H71.4578L71.4712 14.3471C71.9261 13.8655 72.4702 13.4864 73.1035 13.2098C73.7369 12.9244 74.4192 12.7817 75.1507 12.7817C75.6413 12.7817 76.1319 12.853 76.6225 12.9958L75.338 16.2873C74.999 16.1535 74.6601 16.0866 74.3211 16.0866C73.7948 16.0866 73.3132 16.2159 72.8761 16.4746C72.4479 16.7243 72.1045 17.0678 71.8458 17.5049C71.596 17.933 71.4712 18.4102 71.4712 18.9365V26.5364H68.2064Z" fill="white"/>
<path d="M87.585 13.1563H90.8497V26.5364H87.585L87.4378 24.8773C87.0721 25.4749 86.5859 25.9611 85.9794 26.3357C85.3817 26.7014 84.6726 26.8843 83.8519 26.8843C82.8618 26.8843 81.9341 26.697 81.0689 26.3223C80.2036 25.9477 79.441 25.4303 78.7809 24.7702C78.1297 24.1102 77.6168 23.3475 77.2422 22.4823C76.8764 21.617 76.6936 20.6893 76.6936 19.6992C76.6936 18.7447 76.8675 17.8483 77.2154 17.0098C77.5722 16.1713 78.0673 15.4354 78.7006 14.8021C79.3339 14.1687 80.0654 13.6737 80.8949 13.3169C81.7245 12.9601 82.6165 12.7817 83.5709 12.7817C84.454 12.7817 85.2435 12.9779 85.9392 13.3704C86.6439 13.7629 87.2416 14.2624 87.7322 14.869L87.585 13.1563ZM83.7717 23.74C84.4674 23.74 85.0829 23.566 85.6181 23.2182C86.1533 22.8703 86.5726 22.402 86.8758 21.8132C87.1791 21.2156 87.3308 20.56 87.3308 19.8464C87.3308 19.1238 87.1791 18.4682 86.8758 17.8795C86.5726 17.2819 86.1489 16.8091 85.6047 16.4612C85.0695 16.1133 84.4585 15.9394 83.7717 15.9394C83.0848 15.9394 82.4559 16.1178 81.8851 16.4746C81.3231 16.8225 80.8726 17.2908 80.5337 17.8795C80.2036 18.4682 80.0386 19.1238 80.0386 19.8464C80.0386 20.5689 80.2081 21.2245 80.547 21.8132C80.886 22.402 81.3365 22.8703 81.8984 23.2182C82.4693 23.566 83.0937 23.74 83.7717 23.74Z" fill="white"/>
<path d="M101.171 26.5364H96.9563L92.0859 13.1429H95.5648L99.0703 22.7766L102.563 13.1429H106.041L101.171 26.5364Z" fill="white"/>
<path d="M108.02 13.1563H111.284V26.5364H108.02V13.1563ZM109.679 11.4303C109.197 11.4303 108.791 11.2742 108.461 10.962C108.131 10.6409 107.966 10.2395 107.966 9.75777C107.966 9.28501 108.131 8.88806 108.461 8.56694C108.791 8.24582 109.193 8.08526 109.665 8.08526C110.138 8.08526 110.535 8.24582 110.856 8.56694C111.186 8.88806 111.351 9.28501 111.351 9.75777C111.351 10.2395 111.191 10.6409 110.87 10.962C110.549 11.2742 110.152 11.4303 109.679 11.4303Z" fill="white"/>
<path d="M113.966 21.5858V13.1563H117.23V20.7295C117.23 21.2557 117.36 21.7374 117.618 22.1745C117.877 22.6027 118.22 22.9461 118.649 23.2048C119.086 23.4545 119.563 23.5794 120.08 23.5794C120.615 23.5794 121.097 23.4545 121.525 23.2048C121.953 22.9461 122.297 22.6027 122.556 22.1745C122.814 21.7374 122.944 21.2557 122.944 20.7295V13.1563H126.208L126.222 26.5364H122.957L122.944 25.3188C122.48 25.8005 121.931 26.1841 121.298 26.4695C120.664 26.746 119.987 26.8843 119.264 26.8843C118.292 26.8843 117.404 26.6479 116.601 26.1752C115.799 25.6935 115.156 25.0557 114.675 24.2618C114.202 23.459 113.966 22.567 113.966 21.5858Z" fill="white"/>
<path d="M128.9 26.5364V13.1563H132.165V14.3471C132.62 13.8655 133.164 13.4864 133.797 13.2098C134.43 12.9244 135.113 12.7817 135.844 12.7817C136.772 12.7817 137.624 13.0002 138.4 13.4373C139.185 13.8744 139.809 14.4586 140.273 15.1901C140.746 14.4586 141.37 13.8744 142.146 13.4373C142.922 13.0002 143.774 12.7817 144.702 12.7817C145.683 12.7817 146.571 13.0225 147.365 13.5042C148.167 13.977 148.805 14.6147 149.278 15.4176C149.76 16.2114 150 17.099 150 18.0802V26.5364H146.736V18.9499C146.736 18.4325 146.606 17.9598 146.348 17.5316C146.098 17.0945 145.759 16.7466 145.331 16.488C144.912 16.2204 144.439 16.0866 143.912 16.0866C143.386 16.0866 142.909 16.2159 142.481 16.4746C142.062 16.7243 141.723 17.0633 141.464 17.4915C141.205 17.9196 141.076 18.4058 141.076 18.9499V26.5364H137.811V18.9499C137.811 18.4058 137.686 17.9196 137.437 17.4915C137.187 17.0633 136.848 16.7243 136.42 16.4746C135.991 16.2159 135.514 16.0866 134.988 16.0866C134.471 16.0866 133.998 16.2204 133.57 16.488C133.142 16.7466 132.798 17.0945 132.539 17.5316C132.29 17.9598 132.165 18.4325 132.165 18.9499V26.5364H128.9Z" fill="white"/>
<path fill-rule="evenodd" clip-rule="evenodd" d="M14.6923 26.7515L4.89875 16.957C4.71739 16.6854 4.35466 16.504 3.99194 16.504C3.72037 16.504 3.44785 16.6854 3.26648 16.8668L0.00195312 20.0411V23.0321C0.00195312 29.2896 5.08106 34.3678 11.3376 34.3678H22.9458C27.7524 34.3678 31.9237 31.3767 33.555 27.024H15.4187C15.0551 27.024 14.8737 26.9329 14.6923 26.7515Z" fill="white"/>
<path fill-rule="evenodd" clip-rule="evenodd" d="M21.5831 21.4008L12.4238 12.2415C12.1513 11.969 11.6082 11.969 11.3356 12.2415L10.8827 12.6954L10.4288 12.3327C10.1563 11.9699 9.70338 11.6984 9.43086 11.517L12.0611 8.88678C12.6954 8.25248 13.6022 7.88976 14.6002 7.88976C15.507 7.88976 16.3227 8.25248 16.9579 8.79657L26.2074 18.0461C26.6613 18.499 27.1142 18.8617 27.7495 18.7715H34.1874V16.505H27.8397C27.5681 16.505 27.3867 16.505 27.2956 16.3236L19.1342 8.16228C18.9529 7.98091 18.4088 7.98091 18.2274 8.25248L17.8647 8.52501L17.502 8.16228C17.2304 7.98091 17.0481 7.79955 16.6863 7.61819V7.52703L18.3186 5.98592C19.4068 4.89775 21.4018 4.80659 22.5811 5.98592L30.3797 13.7845C30.5038 13.8983 30.6652 13.9628 30.8336 13.9659H34.1883V11.3357C34.1883 5.07911 29.2013 0 22.8527 0H11.3356C5.07911 0 0 5.07816 0 11.3357V17.1393L4.35271 12.8777C5.07816 12.1523 6.07518 11.7895 7.07315 11.7895C8.07112 11.7895 8.88678 12.1523 9.61223 12.6963L19.7685 22.8517C20.5851 23.6674 21.491 24.031 22.7615 24.031H34.1874V21.5831H22.0361C21.868 21.5791 21.7071 21.5144 21.5831 21.4008Z" fill="white"/>
</svg>
