<svg width="60" height="60" viewBox="0 0 60 60" fill="none" xmlns="http://www.w3.org/2000/svg">
<path fill-rule="evenodd" clip-rule="evenodd" d="M25.6424 46.6956L8.54747 29.5992C8.23089 29.1252 7.59775 28.8086 6.9646 28.8086C6.49057 28.8086 6.01488 29.1252 5.69831 29.4417L0 34.9825V40.2034C0 51.1259 8.8657 59.9898 19.7866 59.9898H40.0489C48.4389 59.9898 55.7201 54.7689 58.5676 47.1712H26.9103C26.2755 47.1712 25.959 47.0121 25.6424 46.6956Z" fill="url(#paint0_linear_316_982)"/>
<path fill-rule="evenodd" clip-rule="evenodd" d="M37.6738 37.3551L21.6861 21.3676C21.2104 20.8919 20.2623 20.8919 19.7866 21.3676L18.996 22.1598L18.2038 21.5267C17.7281 20.8935 16.9375 20.4195 16.4618 20.103L21.0529 15.5119C22.1601 14.4047 23.743 13.7716 25.4849 13.7716C27.0678 13.7716 28.4915 14.4047 29.6004 15.3544L45.7456 31.4994C46.5378 32.29 47.3284 32.9232 48.4373 32.7657H59.6748V28.8094H48.5947C48.1207 28.8094 47.8041 28.8094 47.645 28.4928L33.3993 14.2473C33.0827 13.9307 32.133 13.9307 31.8164 14.4047L31.1832 14.8804L30.5501 14.2473C30.0761 13.9307 29.7578 13.6141 29.1263 13.2975V13.1384L31.9755 10.4484C33.8749 8.54902 37.3572 8.3899 39.4158 10.4484L53.0284 24.0609C53.2451 24.2595 53.5268 24.3721 53.8207 24.3775H59.6764V19.7864C59.6764 8.86559 50.9715 0 39.8898 0H19.7866C8.86569 0 0 8.86393 0 19.7864V29.9166L7.59774 22.478C8.86404 21.2118 10.6044 20.5786 12.3463 20.5786C14.0883 20.5786 15.5121 21.2118 16.7784 22.1615L34.5064 39.8877C35.9318 41.3114 37.513 41.9462 39.7307 41.9462H59.6748V37.6733H38.4644C38.1711 37.6664 37.8902 37.5533 37.6738 37.3551Z" fill="url(#paint1_linear_316_982)"/>
<defs>
<linearGradient id="paint0_linear_316_982" x1="18.9753" y1="24.2995" x2="48.6154" y2="39.7793" gradientUnits="userSpaceOnUse">
<stop offset="0.6875" stop-color="white"/>
<stop offset="1" stop-color="white" stop-opacity="0.8"/>
</linearGradient>
<linearGradient id="paint1_linear_316_982" x1="19.3345" y1="-6.06575" x2="52.5723" y2="7.08227" gradientUnits="userSpaceOnUse">
<stop offset="0.6875" stop-color="white"/>
<stop offset="1" stop-color="white" stop-opacity="0.8"/>
</linearGradient>
</defs>
</svg>
