<svg width="18" height="18" viewBox="0 0 18 18" fill="none" xmlns="http://www.w3.org/2000/svg">
<g clip-path="url(#clip0_316_1074)">
<path d="M15.3343 15.3349H12.6676V11.1588C12.6676 10.1629 12.6498 8.88138 11.2806 8.88138C9.89177 8.88138 9.67893 9.96599 9.67893 11.0869V15.3349H7.0131V6.74677H9.57339V7.92005H9.60887C10.1312 7.0279 11.1014 6.49491 12.1346 6.53304C14.8377 6.53304 15.3352 8.31115 15.3352 10.6231L15.3343 15.3349ZM4.00406 5.5726C3.14915 5.5726 2.45654 4.87998 2.45654 4.02507C2.45654 3.17016 3.14915 2.47754 4.00406 2.47754C4.85897 2.47754 5.55159 3.17016 5.55159 4.02507C5.55159 4.87998 4.85897 5.5726 4.00406 5.5726ZM5.33698 15.3349H2.6676V6.74677H5.33698V15.3349ZM16.6637 0.00149625H1.32759C0.603049 -0.00648527 0.00886836 0.574392 0 1.29894V16.698C0.00886836 17.4234 0.603049 18.0043 1.32759 17.9963H16.6637C17.39 18.0052 17.9868 17.4243 17.9966 16.698V1.29805C17.9859 0.571732 17.3891 -0.00914582 16.6637 0.000609375" fill="white"/>
</g>
<defs>
<clipPath id="clip0_316_1074">
<rect width="18" height="18" fill="white"/>
</clipPath>
</defs>
</svg>
