<svg width="150" height="35" viewBox="0 0 150 35" fill="none" xmlns="http://www.w3.org/2000/svg">
<path d="M48.9604 26.8846C47.9257 26.8846 46.9311 26.724 45.9766 26.4029C45.0311 26.0728 44.2015 25.6045 43.4879 24.998C42.7743 24.3825 42.2614 23.6466 41.9492 22.7902L45.0133 21.6663C45.1381 22.0231 45.3924 22.3487 45.7759 22.6431C46.1595 22.9374 46.6278 23.1738 47.1808 23.3522C47.7339 23.5306 48.3271 23.6198 48.9604 23.6198C49.6116 23.6198 50.2181 23.5217 50.7801 23.3254C51.351 23.1203 51.8104 22.8393 52.1582 22.4825C52.5061 22.1168 52.6801 21.6931 52.6801 21.2114C52.6801 20.7208 52.4972 20.3194 52.1315 20.0072C51.7658 19.6861 51.2975 19.4318 50.7266 19.2445C50.1557 19.0572 49.567 18.9145 48.9604 18.8163C47.6313 18.6112 46.4405 18.2945 45.3879 17.8664C44.3353 17.4382 43.5013 16.845 42.8858 16.0868C42.2793 15.3286 41.976 14.3474 41.976 13.1432C41.976 12.0103 42.3016 11.0202 42.9527 10.1728C43.6039 9.32539 44.4602 8.66531 45.5217 8.19254C46.5832 7.71978 47.7294 7.4834 48.9604 7.4834C49.9862 7.4834 50.9763 7.64396 51.9308 7.96508C52.8852 8.2862 53.7192 8.75451 54.4329 9.36999C55.1554 9.98548 55.6727 10.7258 55.9849 11.5911L52.9075 12.7016C52.7826 12.3448 52.5284 12.0193 52.1449 11.7249C51.7613 11.4305 51.293 11.1986 50.7399 11.0291C50.1869 10.8507 49.5937 10.7615 48.9604 10.7615C48.3271 10.7526 47.725 10.8552 47.1541 11.0693C46.5921 11.2744 46.1327 11.5554 45.7759 11.9122C45.4191 12.269 45.2407 12.6793 45.2407 13.1432C45.2407 13.7408 45.4057 14.1913 45.7358 14.4946C46.0748 14.7979 46.5252 15.0209 47.0872 15.1636C47.6491 15.2974 48.2735 15.4223 48.9604 15.5382C50.2092 15.7345 51.3644 16.0645 52.4258 16.5283C53.4873 16.9922 54.3392 17.6121 54.9814 18.3882C55.6237 19.1553 55.9448 20.0964 55.9448 21.2114C55.9448 22.3442 55.6237 23.3388 54.9814 24.1951C54.3392 25.0426 53.4873 25.7026 52.4258 26.1754C51.3644 26.6482 50.2092 26.8846 48.9604 26.8846Z" fill="white"/>
<path d="M65.774 16.4213H63.1782V26.5367H59.9135V16.4213H57.9332V13.1566H59.9135V8.95521H63.1782V13.1566H65.774V16.4213Z" fill="white"/>
<path d="M68.2064 26.5367L68.193 13.1566H71.4578L71.4712 14.3474C71.9261 13.8657 72.4702 13.4866 73.1035 13.2101C73.7369 12.9246 74.4192 12.7819 75.1507 12.7819C75.6413 12.7819 76.1319 12.8533 76.6225 12.996L75.338 16.2875C74.999 16.1537 74.6601 16.0868 74.3211 16.0868C73.7948 16.0868 73.3132 16.2161 72.8761 16.4748C72.4479 16.7246 72.1045 17.068 71.8458 17.5051C71.596 17.9333 71.4712 18.4105 71.4712 18.9368V26.5367H68.2064Z" fill="white"/>
<path d="M87.585 13.1566H90.8497V26.5367H87.585L87.4378 24.8775C87.0721 25.4752 86.5859 25.9613 85.9794 26.336C85.3817 26.7017 84.6726 26.8846 83.8519 26.8846C82.8618 26.8846 81.9341 26.6972 81.0689 26.3226C80.2036 25.9479 79.441 25.4306 78.7809 24.7705C78.1297 24.1104 77.6168 23.3477 77.2422 22.4825C76.8764 21.6172 76.6936 20.6896 76.6936 19.6994C76.6936 18.745 76.8675 17.8485 77.2154 17.01C77.5722 16.1715 78.0673 15.4356 78.7006 14.8023C79.3339 14.169 80.0654 13.6739 80.8949 13.3171C81.7245 12.9603 82.6165 12.7819 83.5709 12.7819C84.454 12.7819 85.2435 12.9782 85.9392 13.3706C86.6439 13.7631 87.2416 14.2627 87.7322 14.8692L87.585 13.1566ZM83.7717 23.7402C84.4674 23.7402 85.0829 23.5663 85.6181 23.2184C86.1533 22.8705 86.5726 22.4022 86.8758 21.8135C87.1791 21.2158 87.3308 20.5602 87.3308 19.8466C87.3308 19.1241 87.1791 18.4685 86.8758 17.8797C86.5726 17.2821 86.1489 16.8093 85.6047 16.4614C85.0695 16.1136 84.4585 15.9396 83.7717 15.9396C83.0848 15.9396 82.4559 16.118 81.8851 16.4748C81.3231 16.8227 80.8726 17.291 80.5337 17.8797C80.2036 18.4685 80.0386 19.1241 80.0386 19.8466C80.0386 20.5691 80.2081 21.2248 80.547 21.8135C80.886 22.4022 81.3365 22.8705 81.8984 23.2184C82.4693 23.5663 83.0937 23.7402 83.7717 23.7402Z" fill="white"/>
<path d="M101.171 26.5367H96.9563L92.0859 13.1432H95.5648L99.0703 22.7769L102.563 13.1432H106.041L101.171 26.5367Z" fill="white"/>
<path d="M108.02 13.1566H111.284V26.5367H108.02V13.1566ZM109.679 11.4305C109.197 11.4305 108.791 11.2744 108.461 10.9622C108.131 10.6411 107.966 10.2397 107.966 9.75802C107.966 9.28525 108.131 8.88831 108.461 8.56719C108.791 8.24606 109.193 8.0855 109.665 8.0855C110.138 8.0855 110.535 8.24606 110.856 8.56719C111.186 8.88831 111.351 9.28525 111.351 9.75802C111.351 10.2397 111.191 10.6411 110.87 10.9622C110.549 11.2744 110.152 11.4305 109.679 11.4305Z" fill="white"/>
<path d="M113.966 21.586V13.1566H117.23V20.7297C117.23 21.256 117.36 21.7377 117.618 22.1748C117.877 22.6029 118.22 22.9463 118.649 23.205C119.086 23.4548 119.563 23.5797 120.08 23.5797C120.615 23.5797 121.097 23.4548 121.525 23.205C121.953 22.9463 122.297 22.6029 122.556 22.1748C122.814 21.7377 122.944 21.256 122.944 20.7297V13.1566H126.208L126.222 26.5367H122.957L122.944 25.3191C122.48 25.8008 121.931 26.1843 121.298 26.4698C120.664 26.7463 119.987 26.8846 119.264 26.8846C118.292 26.8846 117.404 26.6482 116.601 26.1754C115.799 25.6937 115.156 25.0559 114.675 24.2621C114.202 23.4592 113.966 22.5672 113.966 21.586Z" fill="white"/>
<path d="M128.9 26.5367V13.1566H132.165V14.3474C132.62 13.8657 133.164 13.4866 133.797 13.2101C134.43 12.9246 135.113 12.7819 135.844 12.7819C136.772 12.7819 137.624 13.0005 138.4 13.4375C139.185 13.8746 139.809 14.4589 140.273 15.1903C140.746 14.4589 141.37 13.8746 142.146 13.4375C142.922 13.0005 143.774 12.7819 144.702 12.7819C145.683 12.7819 146.571 13.0228 147.365 13.5044C148.167 13.9772 148.805 14.615 149.278 15.4178C149.76 16.2117 150 17.0992 150 18.0804V26.5367H146.736V18.9501C146.736 18.4328 146.606 17.96 146.348 17.5319C146.098 17.0948 145.759 16.7469 145.331 16.4882C144.912 16.2206 144.439 16.0868 143.912 16.0868C143.386 16.0868 142.909 16.2161 142.481 16.4748C142.062 16.7246 141.723 17.0636 141.464 17.4917C141.205 17.9199 141.076 18.406 141.076 18.9501V26.5367H137.811V18.9501C137.811 18.406 137.686 17.9199 137.437 17.4917C137.187 17.0636 136.848 16.7246 136.42 16.4748C135.991 16.2161 135.514 16.0868 134.988 16.0868C134.471 16.0868 133.998 16.2206 133.57 16.4882C133.142 16.7469 132.798 17.0948 132.539 17.5319C132.29 17.96 132.165 18.4328 132.165 18.9501V26.5367H128.9Z" fill="white"/>
<path fill-rule="evenodd" clip-rule="evenodd" d="M14.6904 26.7514L4.8968 16.9568C4.71543 16.6853 4.35271 16.5039 3.98998 16.5039C3.71841 16.5039 3.44589 16.6853 3.26453 16.8666L0 20.041V23.032C0 29.2895 5.07911 34.3677 11.3357 34.3677H22.9438C27.7504 34.3677 31.9218 31.3766 33.5531 27.0239H15.4168C15.0531 27.0239 14.8718 26.9327 14.6904 26.7514Z" fill="#997EFF"/>
<path fill-rule="evenodd" clip-rule="evenodd" d="M21.5831 21.4008L12.4238 12.2415C12.1513 11.969 11.6082 11.969 11.3356 12.2415L10.8827 12.6954L10.4288 12.3327C10.1563 11.9699 9.70338 11.6984 9.43086 11.517L12.0611 8.88678C12.6954 8.25248 13.6022 7.88976 14.6002 7.88976C15.507 7.88976 16.3227 8.25248 16.9579 8.79657L26.2074 18.0461C26.6613 18.499 27.1142 18.8617 27.7495 18.7715H34.1874V16.505H27.8397C27.5681 16.505 27.3867 16.505 27.2956 16.3236L19.1342 8.16228C18.9529 7.98091 18.4088 7.98091 18.2274 8.25248L17.8647 8.52501L17.502 8.16228C17.2304 7.98091 17.0481 7.79955 16.6863 7.61819V7.52703L18.3186 5.98592C19.4068 4.89775 21.4018 4.80659 22.5811 5.98592L30.3797 13.7845C30.5038 13.8983 30.6652 13.9628 30.8336 13.9659H34.1883V11.3357C34.1883 5.07911 29.2013 0 22.8527 0H11.3356C5.07911 0 0 5.07816 0 11.3357V17.1393L4.35271 12.8777C5.07816 12.1523 6.07518 11.7895 7.07315 11.7895C8.07112 11.7895 8.88678 12.1523 9.61223 12.6963L19.7685 22.8517C20.5851 23.6674 21.491 24.031 22.7615 24.031H34.1874V21.5831H22.0361C21.868 21.5791 21.7071 21.5144 21.5831 21.4008Z" fill="#997EFF"/>
</svg>
