<svg width="14" height="12" viewBox="0 0 14 12" fill="none" xmlns="http://www.w3.org/2000/svg">
<path d="M14 5.95678C14.001 6.62078 13.745 7.25078 13.278 7.72278L9.36 11.8038C9.262 11.9058 9.131 11.9568 9 11.9568C8.875 11.9568 8.751 11.9108 8.653 11.8168C8.454 11.6268 8.448 11.3088 8.639 11.1098L12.562 7.02379C12.725 6.85879 12.844 6.66578 12.917 6.45678H0.5C0.224 6.45678 0 6.23278 0 5.95678C0 5.68078 0.224 5.45678 0.5 5.45678H12.911C12.836 5.24878 12.715 5.05878 12.553 4.89778L8.599 0.848785C8.406 0.651785 8.41 0.334785 8.607 0.141785C8.805 -0.0502153 9.122 -0.0472155 9.314 0.150785L13.262 4.19379C13.731 4.65579 13.995 5.28978 14 5.95678Z" fill="#0F0C1A"/>
</svg>
