<svg width="141" height="34" viewBox="0 0 141 34" fill="none" xmlns="http://www.w3.org/2000/svg">
<g clip-path="url(#clip0_2042_1290)">
<path d="M43.0046 23.334H52.9161V20.3486H46.5274V9.10376H43.0046V23.334Z" fill="white" fill-opacity="0.9"/>
<path d="M58.7908 21.3437C57.3777 21.3437 56.6413 20.1097 56.6413 18.2588C56.6413 16.4079 57.3777 15.154 58.7908 15.154C60.2039 15.154 60.9602 16.4079 60.9602 18.2588C60.9602 20.1097 60.2039 21.3437 58.7908 21.3437ZM58.8107 23.6524C62.0946 23.6524 64.2441 21.3238 64.2441 18.2588C64.2441 15.1938 62.0946 12.8652 58.8107 12.8652C55.5467 12.8652 53.3574 15.1938 53.3574 18.2588C53.3574 21.3238 55.5467 23.6524 58.8107 23.6524Z" fill="white" fill-opacity="0.9"/>
<path d="M69.9277 26.8568C71.4403 26.8568 72.7737 26.5184 73.6694 25.7223C74.4854 24.9859 75.0227 23.8714 75.0227 22.3389V13.144H71.9179V14.2386H71.8781C71.2811 13.3828 70.3655 12.8455 69.0122 12.8455C66.4846 12.8455 64.7332 14.9551 64.7332 17.9405C64.7332 21.0652 66.8627 22.7768 69.1515 22.7768C70.3854 22.7768 71.1616 22.2792 71.7587 21.6025H71.8383V22.6176C71.8383 23.8515 71.2612 24.568 69.8879 24.568C68.8132 24.568 68.2758 24.1102 68.0967 23.5729H64.9521C65.2705 25.7024 67.1214 26.8568 69.9277 26.8568ZM69.9078 20.3686C68.6937 20.3686 67.8976 19.3735 67.8976 17.841C67.8976 16.2886 68.6937 15.2935 69.9078 15.2935C71.2612 15.2935 71.9776 16.4478 71.9776 17.8211C71.9776 19.254 71.3209 20.3686 69.9078 20.3686Z" fill="white" fill-opacity="0.9"/>
<path d="M81.4046 21.3437C79.9915 21.3437 79.2551 20.1097 79.2551 18.2588C79.2551 16.4079 79.9915 15.154 81.4046 15.154C82.8176 15.154 83.5739 16.4079 83.5739 18.2588C83.5739 20.1097 82.8176 21.3437 81.4046 21.3437ZM81.4245 23.6524C84.7084 23.6524 86.8578 21.3238 86.8578 18.2588C86.8578 15.1938 84.7084 12.8652 81.4245 12.8652C78.1605 12.8652 75.9712 15.1938 75.9712 18.2588C75.9712 21.3238 78.1605 23.6524 81.4245 23.6524Z" fill="white" fill-opacity="0.9"/>
<path d="M87.8066 23.334H91.0507V13.144H87.8066V23.334ZM87.8066 11.7309H91.0507V9.10376H87.8066V11.7309Z" fill="white" fill-opacity="0.9"/>
<path d="M92.4602 26.6976H95.7043V22.2792H95.7441C96.381 23.135 97.3164 23.6525 98.63 23.6525C101.297 23.6525 103.068 21.5428 103.068 18.239C103.068 15.174 101.416 12.8455 98.7096 12.8455C97.3164 12.8455 96.3213 13.4624 95.6247 14.3779H95.565V13.144H92.4602V26.6976ZM97.7941 21.1448C96.4009 21.1448 95.6048 20.0103 95.6048 18.3584C95.6048 16.7065 96.3213 15.4527 97.7343 15.4527C99.1275 15.4527 99.7843 16.607 99.7843 18.3584C99.7843 20.0899 99.028 21.1448 97.7941 21.1448Z" fill="white" fill-opacity="0.9"/>
<path d="M108.347 23.6525C111.014 23.6525 112.984 22.4981 112.984 20.2691C112.984 17.6618 110.875 17.2041 109.083 16.9056C107.79 16.6667 106.635 16.5672 106.635 15.8507C106.635 15.2138 107.252 14.9153 108.049 14.9153C108.944 14.9153 109.561 15.1939 109.681 16.1095H112.666C112.507 14.0993 110.954 12.8455 108.068 12.8455C105.66 12.8455 103.67 13.96 103.67 16.1095C103.67 18.4978 105.561 18.9754 107.332 19.2739C108.685 19.5128 109.919 19.6123 109.919 20.5278C109.919 21.1846 109.302 21.5428 108.327 21.5428C107.252 21.5428 106.576 21.0453 106.456 20.0302H103.391C103.491 22.2792 105.362 23.6525 108.347 23.6525Z" fill="white" fill-opacity="0.9"/>
<path d="M117.393 23.6326C118.807 23.6326 119.702 23.0754 120.439 22.0802H120.498V23.3341H123.603V13.144H120.359V18.8361C120.359 20.0502 119.682 20.8861 118.568 20.8861C117.533 20.8861 117.035 20.2691 117.035 19.1546V13.144H113.811V19.8313C113.811 22.1001 115.045 23.6326 117.393 23.6326Z" fill="white" fill-opacity="0.9"/>
<path d="M125.014 23.334H128.258V17.622C128.258 16.408 128.855 15.5522 129.87 15.5522C130.845 15.5522 131.303 16.1891 131.303 17.2837V23.334H134.547V17.622C134.547 16.408 135.124 15.5522 136.159 15.5522C137.134 15.5522 137.592 16.1891 137.592 17.2837V23.334H140.836V16.7065C140.836 14.4178 139.682 12.8455 137.373 12.8455C136.06 12.8455 134.965 13.4027 134.169 14.6367H134.129C133.612 13.542 132.596 12.8455 131.263 12.8455C129.79 12.8455 128.815 13.542 128.178 14.5969H128.118V13.144H125.014V23.334Z" fill="white" fill-opacity="0.9"/>
<path fill-rule="evenodd" clip-rule="evenodd" d="M17.1518 33.2852C26.3116 33.2852 33.7372 25.8597 33.7372 16.6998C33.7372 7.54003 26.3116 0.114502 17.1518 0.114502C7.99191 0.114502 0.566406 7.54003 0.566406 16.6998C0.566406 25.8597 7.99191 33.2852 17.1518 33.2852ZM22.3258 7.84066C22.5777 6.94606 21.7095 6.41705 20.9167 6.98192L9.8485 14.8668C8.98864 15.4794 9.12389 16.6998 10.0517 16.6998H12.9662V16.6773H18.6465L14.0181 18.3104L11.9777 25.5591C11.7259 26.4537 12.594 26.9827 13.3869 26.4178L24.4551 18.5329C25.3149 17.9204 25.1796 16.6998 24.2519 16.6998H19.8321L22.3258 7.84066Z" fill="white" fill-opacity="0.9"/>
</g>
<defs>
<clipPath id="clip0_2042_1290">
<rect width="140.976" height="34" fill="white"/>
</clipPath>
</defs>
</svg>
