<svg width="142" height="33" viewBox="0 0 142 33" fill="none" xmlns="http://www.w3.org/2000/svg">
<g clip-path="url(#clip0_2042_1312)">
<path d="M40.4558 23.925H49.8218V21.258H43.3118V8.80493H40.4558V23.925Z" fill="white" fill-opacity="0.9"/>
<path d="M55.4493 24.24C56.5834 24.24 57.5809 23.988 58.4418 23.484C59.3098 22.973 59.9853 22.2695 60.4684 21.3736C60.9583 20.4705 61.2034 19.431 61.2034 18.2551C61.2034 17.086 60.9618 16.0536 60.4788 15.1575C59.9958 14.2546 59.3203 13.5475 58.4523 13.0365C57.5913 12.5255 56.5904 12.27 55.4493 12.27C54.3293 12.27 53.3388 12.5221 52.4778 13.026C51.6169 13.53 50.9414 14.2335 50.4513 15.1366C49.9613 16.0325 49.7163 17.072 49.7163 18.2551C49.7163 19.424 49.9543 20.46 50.4303 21.363C50.9133 22.259 51.5853 22.9625 52.4463 23.4735C53.3074 23.9845 54.3083 24.24 55.4493 24.24ZM55.4493 21.573C54.5603 21.573 53.8849 21.2756 53.4229 20.6806C52.9678 20.0786 52.7403 19.2701 52.7403 18.2551C52.7403 17.268 52.9573 16.47 53.3914 15.861C53.8323 15.2451 54.5183 14.937 55.4493 14.937C56.3524 14.937 57.0313 15.238 57.4863 15.84C57.9483 16.442 58.1793 17.247 58.1793 18.2551C58.1793 19.2281 57.9519 20.026 57.4968 20.649C57.0488 21.265 56.3663 21.573 55.4493 21.573Z" fill="white" fill-opacity="0.9"/>
<path d="M66.851 24.24C67.383 24.24 67.873 24.177 68.3211 24.051C68.7761 23.925 69.189 23.7465 69.5601 23.5155V24.66C69.5741 25.08 69.4655 25.43 69.2345 25.71C69.0105 25.997 68.7096 26.2105 68.3315 26.3505C67.9535 26.4976 67.551 26.5711 67.1241 26.5711C66.725 26.5711 66.354 26.4835 66.0111 26.3085C65.675 26.1336 65.416 25.8781 65.234 25.542L62.5881 26.823C63.022 27.558 63.6415 28.1495 64.4465 28.5975C65.2516 29.0525 66.137 29.28 67.103 29.28C67.936 29.28 68.7096 29.168 69.4235 28.944C70.1376 28.727 70.7396 28.3946 71.2295 27.9465C71.7265 27.4985 72.0661 26.928 72.2481 26.235C72.311 25.99 72.353 25.7415 72.374 25.4895C72.402 25.2445 72.416 24.982 72.416 24.702V12.585H69.917V13.2151C69.532 12.914 69.0945 12.683 68.6045 12.5221C68.1215 12.354 67.5861 12.27 66.998 12.27C65.9131 12.27 64.968 12.5291 64.1631 13.047C63.358 13.565 62.7315 14.2755 62.2836 15.1786C61.8425 16.0745 61.6221 17.1001 61.6221 18.2551C61.6221 19.389 61.839 20.4075 62.2731 21.3105C62.714 22.2135 63.3265 22.9275 64.1105 23.4526C64.8945 23.9775 65.808 24.24 66.851 24.24ZM67.313 21.699C66.6971 21.699 66.1931 21.545 65.801 21.237C65.4091 20.9291 65.1185 20.5161 64.9296 19.998C64.7406 19.473 64.646 18.892 64.646 18.2551C64.646 17.625 64.744 17.0511 64.9401 16.533C65.1361 16.008 65.437 15.5916 65.843 15.2835C66.256 14.9685 66.781 14.811 67.418 14.811C68.3141 14.811 68.9545 15.1296 69.3395 15.7665C69.7246 16.3965 69.917 17.226 69.917 18.2551C69.917 19.284 69.721 20.117 69.3291 20.754C68.944 21.384 68.2721 21.699 67.313 21.699Z" fill="white" fill-opacity="0.9"/>
<path d="M79.201 24.24C80.3351 24.24 81.3326 23.988 82.1935 23.484C83.0614 22.973 83.737 22.2695 84.2197 21.3736C84.7097 20.4705 84.9547 19.431 84.9547 18.2551C84.9547 17.086 84.7138 16.0536 84.2304 15.1575C83.7478 14.2546 83.0721 13.5475 82.204 13.0365C81.3431 12.5255 80.342 12.27 79.201 12.27C78.081 12.27 77.0905 12.5221 76.2295 13.026C75.3686 13.53 74.6931 14.2335 74.203 15.1366C73.713 16.0325 73.468 17.072 73.468 18.2551C73.468 19.424 73.706 20.46 74.1821 21.363C74.665 22.259 75.3371 22.9625 76.198 23.4735C77.0591 23.9845 78.0601 24.24 79.201 24.24ZM79.201 21.573C78.312 21.573 77.6365 21.2756 77.1745 20.6806C76.7195 20.0786 76.4921 19.2701 76.4921 18.2551C76.4921 17.268 76.709 16.47 77.1431 15.861C77.584 15.2451 78.27 14.937 79.201 14.937C80.1041 14.937 80.783 15.238 81.238 15.84C81.7 16.442 81.931 17.247 81.931 18.2551C81.931 19.2281 81.7035 20.026 81.2485 20.649C80.8005 21.265 80.118 21.573 79.201 21.573Z" fill="white" fill-opacity="0.9"/>
<path d="M86.2129 11.01H89.069V8.48999H86.2129V11.01ZM86.2129 23.925H89.069V12.585H86.2129V23.925Z" fill="white" fill-opacity="0.9"/>
<path d="M90.9363 28.965H93.8131V23.5155C94.1843 23.7465 94.5935 23.925 95.0415 24.051C95.4969 24.177 95.9902 24.24 96.5224 24.24C97.5652 24.24 98.4793 23.9775 99.263 23.4526C100.047 22.9275 100.656 22.2135 101.09 21.3105C101.531 20.4075 101.751 19.389 101.751 18.2551C101.751 17.1001 101.528 16.0745 101.08 15.1786C100.638 14.2755 100.015 13.565 99.2102 13.047C98.405 12.5291 97.4604 12.27 96.3755 12.27C95.7873 12.27 95.2486 12.354 94.7585 12.5221C94.2751 12.683 93.8411 12.914 93.4567 13.2151V12.585H90.9363V28.965ZM96.0604 21.699C95.1083 21.699 94.4368 21.384 94.0441 20.754C93.6522 20.117 93.4567 19.284 93.4567 18.2551C93.4567 17.226 93.6489 16.3965 94.0342 15.7665C94.426 15.1296 95.0662 14.811 95.9556 14.811C96.5925 14.811 97.1139 14.9685 97.5198 15.2835C97.9331 15.5916 98.2375 16.008 98.4331 16.533C98.6294 17.0511 98.7276 17.625 98.7276 18.2551C98.7276 18.892 98.6327 19.473 98.4438 19.998C98.2549 20.5161 97.9645 20.9291 97.5726 21.237C97.1807 21.545 96.6766 21.699 96.0604 21.699Z" fill="white" fill-opacity="0.9"/>
<path d="M106.925 24.24C108.409 24.24 109.571 23.9076 110.411 23.2425C111.251 22.5775 111.671 21.664 111.671 20.502C111.671 19.62 111.398 18.9236 110.852 18.4126C110.313 17.9016 109.396 17.478 108.101 17.1421C107.219 16.918 106.561 16.736 106.127 16.596C105.7 16.4561 105.416 16.3195 105.276 16.1865C105.143 16.0536 105.077 15.889 105.077 15.693C105.077 15.364 105.234 15.1121 105.549 14.937C105.872 14.762 106.295 14.6921 106.82 14.727C107.933 14.811 108.542 15.287 108.647 16.155L111.566 15.63C111.419 14.6011 110.915 13.7855 110.054 13.1835C109.193 12.5745 108.094 12.27 106.757 12.27C105.385 12.27 104.29 12.592 103.47 13.236C102.652 13.88 102.242 14.748 102.242 15.84C102.242 16.708 102.526 17.394 103.092 17.898C103.659 18.3951 104.636 18.822 106.022 19.1791C106.841 19.396 107.443 19.571 107.828 19.704C108.22 19.837 108.472 19.9735 108.584 20.1135C108.696 20.2465 108.752 20.4251 108.752 20.649C108.752 21.006 108.612 21.286 108.332 21.4891C108.052 21.685 107.653 21.783 107.135 21.783C106.505 21.783 105.983 21.6325 105.571 21.3315C105.165 21.0305 104.902 20.6141 104.783 20.082L101.864 20.523C102.053 21.706 102.585 22.623 103.46 23.274C104.342 23.918 105.497 24.24 106.925 24.24Z" fill="white" fill-opacity="0.9"/>
<path d="M116.937 24.261C117.757 24.261 118.47 24.1245 119.08 23.8515C119.689 23.5785 120.199 23.2145 120.613 22.7595V23.925H123.132V12.585H120.256V18.339C120.256 19.039 120.175 19.606 120.014 20.04C119.86 20.467 119.661 20.7925 119.416 21.0165C119.171 21.2335 118.908 21.3804 118.628 21.4575C118.348 21.5345 118.086 21.573 117.841 21.573C117.232 21.573 116.759 21.4365 116.423 21.1635C116.094 20.8905 115.856 20.551 115.709 20.145C115.562 19.7389 115.475 19.3365 115.447 18.9375C115.419 18.5315 115.405 18.199 115.405 17.94V12.585H112.506V18.948C112.506 19.1369 112.52 19.438 112.548 19.851C112.576 20.264 112.657 20.7225 112.79 21.2265C112.923 21.7235 113.143 22.203 113.452 22.665C113.767 23.127 114.204 23.5085 114.764 23.8095C115.324 24.1105 116.049 24.261 116.937 24.261Z" fill="white" fill-opacity="0.9"/>
<path d="M124.788 23.925H127.664V17.058C127.664 16.4071 127.843 15.8786 128.2 15.4725C128.564 15.0595 129.043 14.853 129.639 14.853C130.261 14.853 130.748 15.0631 131.098 15.4831C131.454 15.8961 131.633 16.477 131.633 17.226V23.925H134.49V17.058C134.49 16.4071 134.668 15.8786 135.025 15.4725C135.389 15.0595 135.868 14.853 136.463 14.853C137.087 14.853 137.573 15.0631 137.922 15.4831C138.28 15.8961 138.459 16.477 138.459 17.226V23.925H141.314V16.47C141.314 15.231 140.982 14.2301 140.317 13.467C139.659 12.697 138.682 12.312 137.387 12.312C136.659 12.312 135.991 12.4695 135.381 12.7845C134.773 13.0996 134.287 13.53 133.922 14.076C133.628 13.5441 133.208 13.117 132.662 12.795C132.116 12.4731 131.437 12.312 130.625 12.312C129.939 12.312 129.309 12.4485 128.735 12.7215C128.161 12.9875 127.685 13.3551 127.307 13.824V12.585H124.788V23.925Z" fill="white" fill-opacity="0.9"/>
<path d="M16.5 0C7.3873 0 0 7.3873 0 16.5C9.1127 16.5 16.5 9.1127 16.5 0Z" fill="white" fill-opacity="0.9"/>
<path d="M16.4983 33C25.611 33 32.9983 25.6127 32.9983 16.5C23.8856 16.5 16.4983 23.8873 16.4983 33Z" fill="white" fill-opacity="0.9"/>
<path d="M16.4983 0C25.611 0 32.9983 7.3873 32.9983 16.5C23.8856 16.5 16.4983 9.1127 16.4983 0Z" fill="white" fill-opacity="0.9"/>
<path d="M16.5 33C7.3873 33 -7.96657e-07 25.6127 0 16.5C9.1127 16.5 16.5 23.8873 16.5 33Z" fill="white" fill-opacity="0.9"/>
</g>
<defs>
<clipPath id="clip0_2042_1312">
<rect width="141.9" height="33" fill="white"/>
</clipPath>
</defs>
</svg>
