<svg width="32" height="32" viewBox="0 0 32 32" fill="none" xmlns="http://www.w3.org/2000/svg">
<path d="M25.3333 1.3335H6.66667C2.99067 1.3335 0 4.32416 0 8.00016V24.0002C0 27.6762 2.99067 30.6668 6.66667 30.6668H25.3333C29.0093 30.6668 32 27.6762 32 24.0002V8.00016C32 4.32416 29.0093 1.3335 25.3333 1.3335ZM8.66667 24.6668C7.56267 24.6668 6.66667 23.7708 6.66667 22.6668C6.66667 21.5628 7.56267 20.6668 8.66667 20.6668C9.77067 20.6668 10.6667 21.5628 10.6667 22.6668C10.6667 23.7708 9.77067 24.6668 8.66667 24.6668ZM8.66667 18.0002C7.56267 18.0002 6.66667 17.1042 6.66667 16.0002C6.66667 14.8962 7.56267 14.0002 8.66667 14.0002C9.77067 14.0002 10.6667 14.8962 10.6667 16.0002C10.6667 17.1042 9.77067 18.0002 8.66667 18.0002ZM8.66667 11.3335C7.56267 11.3335 6.66667 10.4375 6.66667 9.3335C6.66667 8.2295 7.56267 7.3335 8.66667 7.3335C9.77067 7.3335 10.6667 8.2295 10.6667 9.3335C10.6667 10.4375 9.77067 11.3335 8.66667 11.3335ZM24 24.0002H14.6667C13.9307 24.0002 13.3333 23.4028 13.3333 22.6668C13.3333 21.9308 13.9307 21.3335 14.6667 21.3335H24C24.736 21.3335 25.3333 21.9308 25.3333 22.6668C25.3333 23.4028 24.736 24.0002 24 24.0002ZM24 17.3335H14.6667C13.9307 17.3335 13.3333 16.7362 13.3333 16.0002C13.3333 15.2642 13.9307 14.6668 14.6667 14.6668H24C24.736 14.6668 25.3333 15.2642 25.3333 16.0002C25.3333 16.7362 24.736 17.3335 24 17.3335ZM24 10.6668H14.6667C13.9307 10.6668 13.3333 10.0695 13.3333 9.3335C13.3333 8.5975 13.9307 8.00016 14.6667 8.00016H24C24.736 8.00016 25.3333 8.5975 25.3333 9.3335C25.3333 10.0695 24.736 10.6668 24 10.6668Z" fill="#997EFF"/>
</svg>
