<svg width="397" height="146" viewBox="0 0 397 146" fill="none" xmlns="http://www.w3.org/2000/svg">
<path d="M20.1602 66.0005C11.4758 64.8005 3.10156 70.5005 0 73.5005V176.5H397V1.50049C392.038 13.9005 376.323 24.0005 369.086 27.5005C367.794 24.5005 363.193 19.8005 355.129 25.0005C347.065 30.2005 324.889 35.8338 314.809 38.0005C311.966 32.8338 304.418 24.0005 296.975 30.0005C287.67 37.5005 270.611 43.5005 268.285 40.5005C265.959 37.5005 258.205 27.5005 248.125 33.5005C238.045 39.5005 224.863 46.0005 215.559 46.0005C206.254 46.0005 200.826 39.0005 196.174 35.0005C191.521 31.0005 187.645 39.0005 183.768 42.0005C179.891 45.0005 178.34 46.0005 175.238 43.5005C172.137 41.0005 171.361 41.5005 168.26 43.5005C165.158 45.5005 158.955 50.0005 145.773 56.0005C132.592 62.0005 131.041 50.0005 124.063 46.0005C117.084 42.0005 104.678 49.0005 94.5977 54.0005C84.5176 59.0005 82.9668 58.5005 75.9883 59.5005C69.0098 60.5005 65.1328 55.0005 59.7051 54.0005C54.2773 53.0005 49.625 59.0005 43.4219 66.0005C37.2188 73.0005 31.0156 67.5005 20.1602 66.0005Z" fill="url(#paint0_linear_442_14)"/>
<path d="M1.5 73.0005C4.61462 70.0005 10.6881 64.8005 19.4091 66.0005C30.3103 67.5005 36.5395 73.0005 42.7688 66.0005C48.998 59.0005 53.67 53.0005 59.1206 54.0005C64.5711 55.0005 68.4644 60.5005 75.4723 59.5005C82.4802 58.5005 84.0376 59.0005 94.1601 54.0005C104.283 49.0005 116.741 42.0005 123.749 46.0005C130.757 50.0005 132.314 62.0005 145.551 56.0005C158.789 50.0005 165.018 45.5005 168.132 43.5005C171.247 41.5005 172.026 41.0005 175.14 43.5005C178.255 46.0005 179.812 45.0005 183.706 42.0005C187.599 39.0005 191.492 31.0005 196.164 35.0005C200.836 39.0005 206.287 46.0005 215.63 46.0005C224.974 46.0005 238.211 39.5005 248.334 33.5005C258.457 27.5005 266.243 37.5005 268.579 40.5005C270.915 43.5005 288.045 37.5005 297.389 30.0005C304.864 24.0005 312.443 32.8338 315.298 38.0005C325.421 35.8338 347.69 30.2005 355.789 25.0005C363.887 19.8005 368.507 24.5005 369.804 27.5005C377.072 24.0005 391.607 14.5005 395.5 1.50049" stroke="url(#paint1_linear_442_14)" stroke-width="3" stroke-linecap="round" stroke-linejoin="round"/>
<defs>
<linearGradient id="paint0_linear_442_14" x1="198.5" y1="4.00049" x2="198.5" y2="110.5" gradientUnits="userSpaceOnUse">
<stop stop-color="white" stop-opacity="0.12"/>
<stop offset="1" stop-color="white" stop-opacity="0"/>
</linearGradient>
<linearGradient id="paint1_linear_442_14" x1="129.152" y1="-8.83897" x2="204.963" y2="107.317" gradientUnits="userSpaceOnUse">
<stop offset="0.6875" stop-color="white"/>
<stop offset="1" stop-color="white" stop-opacity="0.8"/>
</linearGradient>
</defs>
</svg>
