<svg width="141" height="34" viewBox="0 0 141 34" fill="none" xmlns="http://www.w3.org/2000/svg">
<g clip-path="url(#clip0_2042_1326)">
<path d="M42.5247 24.3167H52.4361V21.3313H46.0474V10.0864H42.5247V24.3167Z" fill="white" fill-opacity="0.9"/>
<path d="M58.3071 22.3266C56.8941 22.3266 56.1577 21.0926 56.1577 19.2417C56.1577 17.3908 56.8941 16.1369 58.3071 16.1369C59.7202 16.1369 60.4765 17.3908 60.4765 19.2417C60.4765 21.0926 59.7202 22.3266 58.3071 22.3266ZM58.3271 24.6353C61.611 24.6353 63.7604 22.3067 63.7604 19.2417C63.7604 16.1767 61.611 13.8481 58.3271 13.8481C55.0631 13.8481 52.8738 16.1767 52.8738 19.2417C52.8738 22.3067 55.0631 24.6353 58.3271 24.6353Z" fill="white" fill-opacity="0.9"/>
<path d="M69.4438 27.8394C70.9564 27.8394 72.2899 27.5011 73.1855 26.705C74.0015 25.9686 74.5388 24.8541 74.5388 23.3216V14.1267H71.4341V15.2213H71.3942C70.7972 14.3655 69.8817 13.8281 68.5283 13.8281C66.0007 13.8281 64.2493 15.9378 64.2493 18.9232C64.2493 22.0478 66.3788 23.7594 68.6676 23.7594C69.9016 23.7594 70.6778 23.2619 71.2748 22.5852H71.3544V23.6002C71.3544 24.8342 70.7773 25.5507 69.404 25.5507C68.3293 25.5507 67.7919 25.0929 67.6128 24.5555H64.4682C64.7866 26.6851 66.6376 27.8394 69.4438 27.8394ZM69.4239 21.3512C68.2099 21.3512 67.4138 20.3561 67.4138 18.8236C67.4138 17.2712 68.2099 16.2761 69.4239 16.2761C70.7773 16.2761 71.4938 17.4305 71.4938 18.8037C71.4938 20.2367 70.837 21.3512 69.4239 21.3512Z" fill="white" fill-opacity="0.9"/>
<path d="M80.9246 22.3266C79.5115 22.3266 78.7751 21.0926 78.7751 19.2417C78.7751 17.3908 79.5115 16.1369 80.9246 16.1369C82.3376 16.1369 83.0936 17.3908 83.0936 19.2417C83.0936 21.0926 82.3376 22.3266 80.9246 22.3266ZM80.9445 24.6353C84.228 24.6353 86.3775 22.3067 86.3775 19.2417C86.3775 16.1767 84.228 13.8481 80.9445 13.8481C77.6805 13.8481 75.4912 16.1767 75.4912 19.2417C75.4912 22.3067 77.6805 24.6353 80.9445 24.6353Z" fill="white" fill-opacity="0.9"/>
<path d="M87.323 24.3167H90.5671V14.1266H87.323V24.3167ZM87.323 12.7135H90.5671V10.0864H87.323V12.7135Z" fill="white" fill-opacity="0.9"/>
<path d="M91.9763 27.6802H95.2204V23.2619H95.2602C95.8971 24.1177 96.8325 24.6351 98.1461 24.6351C100.813 24.6351 102.584 22.5255 102.584 19.2217C102.584 16.1567 100.932 13.8281 98.2257 13.8281C96.8325 13.8281 95.8374 14.4451 95.1408 15.3606H95.0811V14.1267H91.9763V27.6802ZM97.3102 22.1274C95.917 22.1274 95.1209 20.993 95.1209 19.3411C95.1209 17.6892 95.8374 16.4353 97.2505 16.4353C98.6436 16.4353 99.3004 17.5897 99.3004 19.3411C99.3004 21.0726 98.5441 22.1274 97.3102 22.1274Z" fill="white" fill-opacity="0.9"/>
<path d="M107.863 24.6351C110.53 24.6351 112.5 23.4808 112.5 21.2517C112.5 18.6445 110.391 18.1868 108.6 17.8882C107.306 17.6494 106.152 17.5499 106.152 16.8334C106.152 16.1965 106.769 15.898 107.565 15.898C108.46 15.898 109.077 16.1766 109.197 17.0921H112.182C112.023 15.082 110.47 13.8281 107.585 13.8281C105.176 13.8281 103.186 14.9427 103.186 17.0921C103.186 19.4804 105.077 19.9581 106.848 20.2566C108.202 20.4954 109.435 20.595 109.435 21.5105C109.435 22.1672 108.818 22.5255 107.843 22.5255C106.769 22.5255 106.092 22.0279 105.972 21.0129H102.907C103.007 23.2619 104.878 24.6351 107.863 24.6351Z" fill="white" fill-opacity="0.9"/>
<path d="M116.91 24.6153C118.323 24.6153 119.218 24.058 119.955 23.0629H120.014V24.3168H123.119V14.1267H119.875V19.8188C119.875 21.0329 119.198 21.8688 118.084 21.8688C117.049 21.8688 116.551 21.2518 116.551 20.1372V14.1267H113.327V20.8139C113.327 23.0828 114.561 24.6153 116.91 24.6153Z" fill="white" fill-opacity="0.9"/>
<path d="M124.53 24.3167H127.774V18.6047C127.774 17.3907 128.371 16.5349 129.386 16.5349C130.361 16.5349 130.819 17.1717 130.819 18.2664V24.3167H134.063V18.6047C134.063 17.3907 134.64 16.5349 135.675 16.5349C136.65 16.5349 137.108 17.1717 137.108 18.2664V24.3167H140.352V17.6892C140.352 15.4004 139.198 13.8281 136.889 13.8281C135.575 13.8281 134.481 14.3854 133.685 15.6193H133.645C133.127 14.5247 132.112 13.8281 130.779 13.8281C129.306 13.8281 128.331 14.5247 127.694 15.5795H127.634V14.1267H124.53V24.3167Z" fill="white" fill-opacity="0.9"/>
<path fill-rule="evenodd" clip-rule="evenodd" d="M16.6718 33.4388C25.8317 33.4388 33.2571 26.0132 33.2571 16.8534C33.2571 7.69358 25.8317 0.268066 16.6718 0.268066C7.51194 0.268066 0.0864258 7.69358 0.0864258 16.8534C0.0864258 26.0132 7.51194 33.4388 16.6718 33.4388ZM19.2317 13.0824C20.6454 11.6686 20.6454 9.37638 19.2317 7.96256C17.8179 6.54876 15.5257 6.54876 14.1119 7.96256C12.6982 9.37638 12.6982 11.6686 14.1119 13.0824L16.6718 15.6423L19.2317 13.0824ZM20.4429 19.4134C21.8567 20.8272 24.1489 20.8272 25.5627 19.4134C26.9764 17.9995 26.9764 15.7074 25.5627 14.2935C24.1489 12.8798 21.8567 12.8798 20.4429 14.2935L17.883 16.8535L20.4429 19.4134ZM19.2317 25.7443C20.6454 24.3305 20.6454 22.0383 19.2317 20.6245L16.6718 18.0646L14.1119 20.6245C12.6982 22.0383 12.6982 24.3305 14.1119 25.7443C15.5257 27.1581 17.8179 27.1581 19.2317 25.7443ZM7.7809 19.4134C6.36713 17.9995 6.36713 15.7074 7.7809 14.2935C9.19474 12.8798 11.4869 12.8798 12.9007 14.2935L15.4606 16.8535L12.9007 19.4134C11.4869 20.8272 9.19474 20.8272 7.7809 19.4134Z" fill="white" fill-opacity="0.9"/>
</g>
<defs>
<clipPath id="clip0_2042_1326">
<rect width="140.976" height="34" fill="white"/>
</clipPath>
</defs>
</svg>
