<svg width="32" height="32" viewBox="0 0 32 32" fill="none" xmlns="http://www.w3.org/2000/svg">
<g clip-path="url(#clip0_139_1372)">
<path d="M26.6667 0H5.33333C3.91885 0 2.56229 0.561903 1.5621 1.5621C0.561903 2.56229 0 3.91885 0 5.33333L0 21.3333C0 22.7478 0.561903 24.1044 1.5621 25.1046C2.56229 26.1048 3.91885 26.6667 5.33333 26.6667H9.2L15.1347 31.684C15.3754 31.8877 15.6806 31.9995 15.996 31.9995C16.3114 31.9995 16.6166 31.8877 16.8573 31.684L22.8 26.6667H26.6667C28.0812 26.6667 29.4377 26.1048 30.4379 25.1046C31.4381 24.1044 32 22.7478 32 21.3333V5.33333C32 3.91885 31.4381 2.56229 30.4379 1.5621C29.4377 0.561903 28.0812 0 26.6667 0ZM9.33333 6.66667H16C16.3536 6.66667 16.6928 6.80714 16.9428 7.05719C17.1929 7.30724 17.3333 7.64638 17.3333 8C17.3333 8.35362 17.1929 8.69276 16.9428 8.94281C16.6928 9.19286 16.3536 9.33333 16 9.33333H9.33333C8.97971 9.33333 8.64057 9.19286 8.39052 8.94281C8.14048 8.69276 8 8.35362 8 8C8 7.64638 8.14048 7.30724 8.39052 7.05719C8.64057 6.80714 8.97971 6.66667 9.33333 6.66667ZM22.6667 20H9.33333C8.97971 20 8.64057 19.8595 8.39052 19.6095C8.14048 19.3594 8 19.0203 8 18.6667C8 18.313 8.14048 17.9739 8.39052 17.7239C8.64057 17.4738 8.97971 17.3333 9.33333 17.3333H22.6667C23.0203 17.3333 23.3594 17.4738 23.6095 17.7239C23.8595 17.9739 24 18.313 24 18.6667C24 19.0203 23.8595 19.3594 23.6095 19.6095C23.3594 19.8595 23.0203 20 22.6667 20ZM22.6667 14.6667H9.33333C8.97971 14.6667 8.64057 14.5262 8.39052 14.2761C8.14048 14.0261 8 13.687 8 13.3333C8 12.9797 8.14048 12.6406 8.39052 12.3905C8.64057 12.1405 8.97971 12 9.33333 12H22.6667C23.0203 12 23.3594 12.1405 23.6095 12.3905C23.8595 12.6406 24 12.9797 24 13.3333C24 13.687 23.8595 14.0261 23.6095 14.2761C23.3594 14.5262 23.0203 14.6667 22.6667 14.6667Z" fill="#997EFF"/>
</g>
<defs>
<clipPath id="clip0_139_1372">
<rect width="32" height="32" fill="white"/>
</clipPath>
</defs>
</svg>
