<svg width="139" height="34" viewBox="0 0 139 34" fill="none" xmlns="http://www.w3.org/2000/svg">
<g clip-path="url(#clip0_2042_1301)">
<path d="M40.3291 23.8777H50.2405V20.8923H43.8518V9.64746H40.3291V23.8777Z" fill="white" fill-opacity="0.9"/>
<path d="M56.1104 21.8874C54.6973 21.8874 53.9609 20.6534 53.9609 18.8025C53.9609 16.9516 54.6973 15.6977 56.1104 15.6977C57.5234 15.6977 58.2797 16.9516 58.2797 18.8025C58.2797 20.6534 57.5234 21.8874 56.1104 21.8874ZM56.1303 24.1961C59.4142 24.1961 61.5636 21.8675 61.5636 18.8025C61.5636 15.7375 59.4142 13.4089 56.1303 13.4089C52.8663 13.4089 50.677 15.7375 50.677 18.8025C50.677 21.8675 52.8663 24.1961 56.1303 24.1961Z" fill="white" fill-opacity="0.9"/>
<path d="M67.2512 27.4005C68.7638 27.4005 70.0972 27.0621 70.9928 26.266C71.8088 25.5296 72.3462 24.4151 72.3462 22.8826V13.6877H69.2414V14.7823H69.2016C68.6045 13.9265 67.689 13.3892 66.3357 13.3892C63.8081 13.3892 62.0566 15.4988 62.0566 18.4842C62.0566 21.6089 64.1862 23.3205 66.475 23.3205C67.7089 23.3205 68.4851 22.8229 69.0822 22.1462H69.1618V23.1613C69.1618 24.3952 68.5846 25.1117 67.2114 25.1117C66.1366 25.1117 65.5993 24.6539 65.4202 24.1166H62.2756C62.594 26.2461 64.4449 27.4005 67.2512 27.4005ZM67.2313 20.9123C66.0172 20.9123 65.2211 19.9172 65.2211 18.3847C65.2211 16.8323 66.0172 15.8372 67.2313 15.8372C68.5846 15.8372 69.3011 16.9915 69.3011 18.3648C69.3011 19.7977 68.6443 20.9123 67.2313 20.9123Z" fill="white" fill-opacity="0.9"/>
<path d="M78.7268 21.8874C77.3138 21.8874 76.5774 20.6534 76.5774 18.8025C76.5774 16.9516 77.3138 15.6977 78.7268 15.6977C80.1399 15.6977 80.8962 16.9516 80.8962 18.8025C80.8962 20.6534 80.1399 21.8874 78.7268 21.8874ZM78.7467 24.1961C82.0306 24.1961 84.1803 21.8675 84.1803 18.8025C84.1803 15.7375 82.0306 13.4089 78.7467 13.4089C75.4827 13.4089 73.2935 15.7375 73.2935 18.8025C73.2935 21.8675 75.4827 24.1961 78.7467 24.1961Z" fill="white" fill-opacity="0.9"/>
<path d="M85.1292 23.8777H88.3733V13.6877H85.1292V23.8777ZM85.1292 12.2746H88.3733V9.64746H85.1292V12.2746Z" fill="white" fill-opacity="0.9"/>
<path d="M89.7776 27.2413H93.0217V22.8229H93.0615C93.6984 23.6787 94.6338 24.1962 95.9473 24.1962C98.6143 24.1962 100.386 22.0865 100.386 18.7827C100.386 15.7177 98.7337 13.3892 96.027 13.3892C94.6338 13.3892 93.6387 14.0061 92.9421 14.9216H92.8824V13.6877H89.7776V27.2413ZM95.1114 21.6885C93.7183 21.6885 92.9222 20.554 92.9222 18.9021C92.9222 17.2502 93.6387 15.9964 95.0517 15.9964C96.4449 15.9964 97.1017 17.1507 97.1017 18.9021C97.1017 20.6336 96.3454 21.6885 95.1114 21.6885Z" fill="white" fill-opacity="0.9"/>
<path d="M105.669 24.1962C108.336 24.1962 110.306 23.0418 110.306 20.8128C110.306 18.2056 108.196 17.7478 106.405 17.4493C105.111 17.2104 103.957 17.1109 103.957 16.3944C103.957 15.7576 104.574 15.459 105.37 15.459C106.266 15.459 106.883 15.7376 107.002 16.6532H109.987C109.828 14.643 108.276 13.3892 105.39 13.3892C102.982 13.3892 100.992 14.5037 100.992 16.6532C100.992 19.0415 102.882 19.5191 104.654 19.8176C106.007 20.0565 107.241 20.156 107.241 21.0715C107.241 21.7283 106.624 22.0865 105.649 22.0865C104.574 22.0865 103.897 21.589 103.778 20.5739H100.713C100.812 22.8229 102.683 24.1962 105.669 24.1962Z" fill="white" fill-opacity="0.9"/>
<path d="M114.713 24.1761C116.126 24.1761 117.021 23.6188 117.758 22.6237H117.818V23.8775H120.922V13.6875H117.678V19.3796C117.678 20.5936 117.002 21.4295 115.887 21.4295C114.852 21.4295 114.355 20.8126 114.355 19.698V13.6875H111.13V20.3747C111.13 22.6436 112.364 24.1761 114.713 24.1761Z" fill="white" fill-opacity="0.9"/>
<path d="M122.336 23.8777H125.58V18.1657C125.58 16.9517 126.177 16.0959 127.192 16.0959C128.167 16.0959 128.625 16.7328 128.625 17.8274V23.8777H131.869V18.1657C131.869 16.9517 132.446 16.0959 133.481 16.0959C134.457 16.0959 134.914 16.7328 134.914 17.8274V23.8777H138.158V17.2502C138.158 14.9615 137.004 13.3892 134.695 13.3892C133.382 13.3892 132.287 13.9464 131.491 15.1804H131.451C130.934 14.0857 129.919 13.3892 128.585 13.3892C127.113 13.3892 126.137 14.0857 125.5 15.1406H125.441V13.6877H122.336V23.8777Z" fill="white" fill-opacity="0.9"/>
<path fill-rule="evenodd" clip-rule="evenodd" d="M7.17747 3.227C5.99107 4.05657 4.91824 5.03739 3.98693 6.14149C7.79269 5.78817 12.6278 6.3651 18.2413 9.17187C24.2357 12.169 29.0627 12.2703 32.4221 11.6224C32.1172 10.6995 31.7335 9.81248 31.2789 8.96928C27.4334 9.37488 22.5034 8.83801 16.7579 5.96534C13.1094 4.14111 9.89335 3.38966 7.17747 3.227ZM29.0325 5.77185C25.9957 2.37877 21.5824 0.243408 16.6703 0.243408C15.2278 0.243408 13.8281 0.427594 12.4938 0.773709C14.301 1.2668 16.2207 1.98818 18.2413 2.99846C22.4478 5.1017 26.0795 5.7789 29.0325 5.77185ZM33.1403 14.8618C29.0819 15.6632 23.4776 15.4986 16.7579 12.1387C10.4757 8.99764 5.47556 9.0372 2.10332 9.78661C1.92925 9.82525 1.75929 9.86589 1.59342 9.90818C1.15191 10.8684 0.799487 11.8781 0.546616 12.9266C0.816696 12.8545 1.09578 12.7859 1.38373 12.7219C5.47485 11.8128 11.2553 11.8522 18.2413 15.3453C24.5235 18.4864 29.5236 18.4468 32.8959 17.6974C33.0114 17.6718 33.1253 17.6453 33.2372 17.6179C33.2495 17.3564 33.2557 17.0933 33.2557 16.8288C33.2557 16.1633 33.2165 15.5069 33.1403 14.8618ZM32.6957 21.118C28.6767 21.8206 23.2356 21.5509 16.7579 18.3121C10.4757 15.171 5.47556 15.2106 2.10332 15.96C1.35478 16.1263 0.681403 16.3289 0.0873907 16.5427C0.0857711 16.6379 0.0849609 16.7332 0.0849609 16.8288C0.0849609 25.9886 7.51047 33.4141 16.6703 33.4141C24.3469 33.4141 30.8054 28.1988 32.6957 21.118Z" fill="white" fill-opacity="0.9"/>
</g>
<defs>
<clipPath id="clip0_2042_1301">
<rect width="138.488" height="34" fill="white"/>
</clipPath>
</defs>
</svg>
