<svg width="32" height="32" viewBox="0 0 32 32" fill="none" xmlns="http://www.w3.org/2000/svg">
<g clip-path="url(#clip0_139_1421)">
<path d="M31.6067 24.732C30.412 22.9653 27.6613 20 22.6667 20C17.672 20 14.92 22.9653 13.7267 24.732C13.2053 25.5013 13.204 26.496 13.7267 27.268C14.9213 29.0347 17.6733 32 22.668 32C27.6627 32 30.4133 29.0347 31.608 27.268C32.1293 26.4973 32.128 25.5027 31.6067 24.732ZM22.6667 28.6667C21.1933 28.6667 20 27.4733 20 26C20 24.5267 21.1933 23.3333 22.6667 23.3333C24.14 23.3333 25.3333 24.5267 25.3333 26C25.3333 27.4733 24.14 28.6667 22.6667 28.6667ZM11.5173 28.7627C10.3813 27.08 10.3827 24.912 11.5187 23.2347C13.0067 21.0333 16.4373 17.332 22.6667 17.332C27.0813 17.332 30.0907 19.192 32 21.06V6.66667C32 2.98533 29.0147 0 25.3333 0H6.66667C2.98533 0 0 2.98533 0 6.66667V24C0 27.6813 2.98533 30.6667 6.66667 30.6667H13.0627C12.4107 29.992 11.9 29.328 11.5173 28.7627ZM14.6667 6.66667H24C24.736 6.66667 25.3333 7.264 25.3333 8C25.3333 8.736 24.736 9.33333 24 9.33333H14.6667C13.9307 9.33333 13.3333 8.736 13.3333 8C13.3333 7.264 13.9307 6.66667 14.6667 6.66667ZM14.6667 13.3333H24C24.736 13.3333 25.3333 13.9307 25.3333 14.6667C25.3333 15.4027 24.736 16 24 16H14.6667C13.9307 16 13.3333 15.4027 13.3333 14.6667C13.3333 13.9307 13.9307 13.3333 14.6667 13.3333ZM8.66667 6C9.77067 6 10.6667 6.896 10.6667 8C10.6667 9.104 9.77067 10 8.66667 10C7.56267 10 6.66667 9.104 6.66667 8C6.66667 6.896 7.56267 6 8.66667 6ZM8.66667 12.6667C9.77067 12.6667 10.6667 13.5627 10.6667 14.6667C10.6667 15.7707 9.77067 16.6667 8.66667 16.6667C7.56267 16.6667 6.66667 15.7707 6.66667 14.6667C6.66667 13.5627 7.56267 12.6667 8.66667 12.6667ZM8.66667 23.3333C7.56267 23.3333 6.66667 22.4373 6.66667 21.3333C6.66667 20.2293 7.56267 19.3333 8.66667 19.3333C9.77067 19.3333 10.6667 20.2293 10.6667 21.3333C10.6667 22.4373 9.77067 23.3333 8.66667 23.3333Z" fill="#997EFF"/>
</g>
<defs>
<clipPath id="clip0_139_1421">
<rect width="32" height="32" fill="white"/>
</clipPath>
</defs>
</svg>
