<svg width="143" height="25" viewBox="0 0 143 25" fill="none" xmlns="http://www.w3.org/2000/svg">
<g clip-path="url(#clip0_2042_1378)">
<path d="M21.4376 19.1615H28.8405L10.5021 0.822998H3.09912L21.4376 19.1615Z" fill="white" fill-opacity="0.9"/>
<path d="M14.307 0.822999L31.985 18.5009V0.822998H27.201V6.40426L21.6197 0.822998L14.307 0.822999Z" fill="white" fill-opacity="0.9"/>
<path d="M0 1.43701V19.1615H4.78395V13.5802L10.3652 19.1615H17.7245L0 1.43701Z" fill="white" fill-opacity="0.9"/>
<path d="M43.5276 16.404H47.814V18.9299H40.2554V5.49658H43.5276V16.404Z" fill="white" fill-opacity="0.9"/>
<path d="M53.66 19.0831C52.6139 19.0831 51.6699 18.8599 50.8279 18.4133C49.9986 17.9668 49.3417 17.3289 48.8569 16.4998C48.3849 15.6705 48.1489 14.701 48.1489 13.5911C48.1489 12.494 48.3912 11.5308 48.8761 10.7016C49.3609 9.85957 50.0242 9.21537 50.8661 8.76887C51.7082 8.32237 52.6522 8.09912 53.6983 8.09912C54.7444 8.09912 55.6884 8.32237 56.5304 8.76887C57.3723 9.21537 58.0357 9.85957 58.5205 10.7016C59.0053 11.5308 59.2476 12.494 59.2476 13.5911C59.2476 14.6882 58.9989 15.6577 58.5013 16.4998C58.0166 17.3289 57.3468 17.9668 56.4921 18.4133C55.6501 18.8599 54.7061 19.0831 53.66 19.0831ZM53.66 16.251C54.2851 16.251 54.8146 16.0213 55.2483 15.5621C55.6948 15.1028 55.918 14.4459 55.918 13.5911C55.918 12.7363 55.7011 12.0794 55.2674 11.6201C54.8464 11.1609 54.3234 10.9312 53.6983 10.9312C53.0604 10.9312 52.531 11.1609 52.11 11.6201C51.689 12.0666 51.4786 12.7236 51.4786 13.5911C51.4786 14.4459 51.6826 15.1028 52.0909 15.5621C52.5119 16.0213 53.0349 16.251 53.66 16.251Z" fill="white" fill-opacity="0.9"/>
<path d="M64.4658 8.09912C65.2185 8.09912 65.8756 8.2522 66.4368 8.55838C67.0109 8.86456 67.451 9.26643 67.7572 9.76393V8.2522H71.0294V18.9109C71.0294 19.8932 70.8317 20.7798 70.4362 21.5707C70.0535 22.3744 69.4603 23.0123 68.6566 23.4843C67.8656 23.9563 66.8769 24.1924 65.6906 24.1924C64.1086 24.1924 62.8266 23.816 61.8443 23.0633C60.8619 22.3234 60.3006 21.3156 60.1603 20.0399H63.3943C63.4963 20.4481 63.7387 20.767 64.1214 20.9966C64.5042 21.239 64.9761 21.3602 65.5375 21.3602C66.2136 21.3602 66.7494 21.1625 67.1449 20.767C67.5531 20.3843 67.7572 19.7656 67.7572 18.9109V17.3991C67.4382 17.8966 66.9981 18.3049 66.4368 18.6238C65.8756 18.9299 65.2185 19.0831 64.4658 19.0831C63.5856 19.0831 62.7882 18.8599 62.0739 18.4133C61.3594 17.954 60.7918 17.3099 60.3708 16.4806C59.9626 15.6386 59.7584 14.6691 59.7584 13.572C59.7584 12.4749 59.9626 11.5117 60.3708 10.6824C60.7918 9.85328 61.3594 9.21537 62.0739 8.76887C62.7882 8.32237 63.5856 8.09912 64.4658 8.09912ZM67.7572 13.5911C67.7572 12.7747 67.5276 12.1304 67.0683 11.6584C66.6218 11.1863 66.0732 10.9503 65.4227 10.9503C64.772 10.9503 64.2171 11.1863 63.7579 11.6584C63.3113 12.1176 63.0881 12.7555 63.0881 13.572C63.0881 14.3885 63.3113 15.039 63.7579 15.5238C64.2171 15.9959 64.772 16.2318 65.4227 16.2318C66.0732 16.2318 66.6218 15.9959 67.0683 15.5238C67.5276 15.0518 67.7572 14.4075 67.7572 13.5911Z" fill="white" fill-opacity="0.9"/>
<path d="M77.6866 19.0831C76.6405 19.0831 75.6966 18.8599 74.8545 18.4133C74.0253 17.9668 73.3683 17.3289 72.8836 16.4998C72.4116 15.6705 72.1755 14.701 72.1755 13.5911C72.1755 12.494 72.4179 11.5308 72.9027 10.7016C73.3875 9.85957 74.0508 9.21537 74.8929 8.76887C75.7348 8.32237 76.6789 8.09912 77.7249 8.09912C78.771 8.09912 79.7151 8.32237 80.557 8.76887C81.399 9.21537 82.0624 9.85957 82.5471 10.7016C83.0319 11.5308 83.2743 12.494 83.2743 13.5911C83.2743 14.6882 83.0255 15.6577 82.528 16.4998C82.0432 17.3289 81.3735 17.9668 80.5188 18.4133C79.6767 18.8599 78.7328 19.0831 77.6866 19.0831ZM77.6866 16.251C78.3117 16.251 78.8412 16.0213 79.2749 15.5621C79.7215 15.1028 79.9447 14.4459 79.9447 13.5911C79.9447 12.7363 79.7278 12.0794 79.2941 11.6201C78.873 11.1609 78.3501 10.9312 77.7249 10.9312C77.0871 10.9312 76.5577 11.1609 76.1366 11.6201C75.7156 12.0666 75.5052 12.7236 75.5052 13.5911C75.5052 14.4459 75.7093 15.1028 76.1175 15.5621C76.5385 16.0213 77.0616 16.251 77.6866 16.251Z" fill="white" fill-opacity="0.9"/>
<path d="M86.0791 7.14242C85.505 7.14242 85.0329 6.97657 84.6629 6.64489C84.3058 6.30044 84.1272 5.87946 84.1272 5.38192C84.1272 4.87164 84.3058 4.45065 84.6629 4.11896C85.0329 3.77452 85.505 3.60229 86.0791 3.60229C86.6403 3.60229 87.0996 3.77452 87.4568 4.11896C87.8267 4.45065 88.0117 4.87164 88.0117 5.38192C88.0117 5.87946 87.8267 6.30044 87.4568 6.64489C87.0996 6.97657 86.6403 7.14242 86.0791 7.14242ZM87.7055 8.2523V18.93H84.4333V8.2523H87.7055Z" fill="white" fill-opacity="0.9"/>
<path d="M92.7744 9.76393C93.0938 9.26643 93.5336 8.86456 94.0947 8.55838C94.6558 8.2522 95.3132 8.09912 96.066 8.09912C96.9466 8.09912 97.7438 8.32237 98.4577 8.76887C99.1725 9.21537 99.7336 9.85328 100.142 10.6824C100.563 11.5117 100.773 12.4749 100.773 13.572C100.773 14.6691 100.563 15.6386 100.142 16.4806C99.7336 17.3099 99.1725 17.954 98.4577 18.4133C97.7438 18.8599 96.9466 19.0831 96.066 19.0831C95.3262 19.0831 94.6688 18.9299 94.0947 18.6238C93.5336 18.3176 93.0938 17.9222 92.7744 17.4374V24.0201H89.5023V8.2522H92.7744V9.76393ZM97.4438 13.572C97.4438 12.7555 97.2142 12.1176 96.7549 11.6584C96.3086 11.1863 95.7531 10.9503 95.0901 10.9503C94.4392 10.9503 93.8845 11.1863 93.4253 11.6584C92.979 12.1304 92.7558 12.7747 92.7558 13.5911C92.7558 14.4075 92.979 15.0518 93.4253 15.5238C93.8845 15.9959 94.4392 16.2318 95.0901 16.2318C95.741 16.2318 96.2957 15.9959 96.7549 15.5238C97.2142 15.039 97.4438 14.3885 97.4438 13.572Z" fill="white" fill-opacity="0.9"/>
<path d="M106.26 19.0831C105.329 19.0831 104.5 18.9236 103.773 18.6047C103.045 18.2858 102.471 17.852 102.051 17.3035C101.63 16.7422 101.393 16.117 101.343 15.4281H104.577C104.615 15.7981 104.787 16.0979 105.093 16.3275C105.399 16.5572 105.776 16.672 106.222 16.672C106.63 16.672 106.943 16.5954 107.16 16.4424C107.39 16.2765 107.505 16.066 107.505 15.8109C107.505 15.5047 107.344 15.2814 107.026 15.1411C106.706 14.988 106.19 14.8222 105.476 14.6436C104.71 14.4649 104.072 14.2799 103.562 14.0886C103.052 13.8845 102.612 13.572 102.242 13.151C101.872 12.7173 101.687 12.1368 101.687 11.4096C101.687 10.7973 101.853 10.2424 102.184 9.74476C102.529 9.23451 103.027 8.83266 103.677 8.53924C104.341 8.24582 105.125 8.09912 106.03 8.09912C107.37 8.09912 108.423 8.43081 109.188 9.09419C109.967 9.75754 110.413 10.6378 110.528 11.7349H107.505C107.453 11.3649 107.287 11.0715 107.006 10.8547C106.739 10.6378 106.381 10.5294 105.935 10.5294C105.553 10.5294 105.259 10.6059 105.055 10.759C104.851 10.8993 104.749 11.0971 104.749 11.3522C104.749 11.6584 104.908 11.888 105.227 12.0411C105.558 12.1942 106.069 12.3473 106.758 12.5003C107.549 12.7045 108.193 12.9086 108.691 13.1127C109.188 13.304 109.622 13.623 109.992 14.0695C110.375 14.5033 110.572 15.09 110.585 15.8299C110.585 16.4551 110.406 17.0164 110.049 17.5139C109.705 17.9987 109.201 18.3814 108.538 18.6621C107.887 18.9427 107.128 19.0831 106.26 19.0831Z" fill="white" fill-opacity="0.9"/>
<path d="M122.557 8.2522V18.9299H119.284V17.4757C118.953 17.9477 118.5 18.3304 117.926 18.6238C117.365 18.9045 116.74 19.0448 116.051 19.0448C115.234 19.0448 114.513 18.8662 113.888 18.509C113.263 18.139 112.779 17.6096 112.434 16.9207C112.09 16.2318 111.918 15.4218 111.918 14.4905V8.2522H115.171V14.0503C115.171 14.7648 115.356 15.3197 115.725 15.7151C116.096 16.1107 116.593 16.3084 117.218 16.3084C117.856 16.3084 118.359 16.1107 118.73 15.7151C119.1 15.3197 119.284 14.7648 119.284 14.0503V8.2522H122.557Z" fill="white" fill-opacity="0.9"/>
<path d="M137.959 8.13745C139.286 8.13745 140.339 8.5393 141.116 9.34297C141.908 10.1467 142.303 11.263 142.303 12.6918V18.93H139.05V13.1319C139.05 12.443 138.865 11.9136 138.495 11.5436C138.138 11.1609 137.64 10.9695 137.002 10.9695C136.364 10.9695 135.861 11.1609 135.49 11.5436C135.134 11.9136 134.955 12.443 134.955 13.1319V18.93H131.701V13.1319C131.701 12.443 131.517 11.9136 131.147 11.5436C130.789 11.1609 130.292 10.9695 129.654 10.9695C129.016 10.9695 128.513 11.1609 128.142 11.5436C127.786 11.9136 127.607 12.443 127.607 13.1319V18.93H124.335V8.25227H127.607V9.59177C127.939 9.14528 128.372 8.79445 128.908 8.5393C129.444 8.2714 130.05 8.13745 130.726 8.13745C131.529 8.13745 132.244 8.30967 132.869 8.65412C133.507 8.99856 134.004 9.48973 134.362 10.1276C134.732 9.54075 135.236 9.06235 135.874 8.6924C136.512 8.32243 137.207 8.13745 137.959 8.13745Z" fill="white" fill-opacity="0.9"/>
</g>
<defs>
<clipPath id="clip0_2042_1378">
<rect width="142.593" height="25" fill="white"/>
</clipPath>
</defs>
</svg>
