<svg width="136" height="30" viewBox="0 0 136 30" fill="none" xmlns="http://www.w3.org/2000/svg">
<path d="M39.8017 20.0219C39.8017 20.6768 39.6672 21.18 39.3984 21.5315C39.1365 21.8831 38.6987 22.0589 38.0852 22.0589C37.5061 22.0589 37.096 21.8831 36.8547 21.5315C36.6203 21.18 36.5032 20.6768 36.5032 20.0219V9.09243C36.5032 8.43755 36.6203 7.93433 36.8547 7.58277C37.096 7.2312 37.5061 7.05542 38.0852 7.05542C38.6987 7.05542 39.1365 7.2312 39.3984 7.58277C39.6672 7.93433 39.8017 8.43755 39.8017 9.09243V20.0219Z" fill="white" fill-opacity="0.9"/>
<path d="M40.8026 16.8474C40.8026 16.1166 40.9198 15.4274 41.1542 14.7794C41.3955 14.1245 41.7539 13.5524 42.2296 13.0629C42.7121 12.5735 43.3118 12.184 44.0288 11.8945C44.7526 11.6049 45.6004 11.4602 46.5724 11.4602C47.503 11.4602 48.3268 11.5946 49.0437 11.8634C49.7606 12.1323 50.3638 12.508 50.8531 12.9906C51.3426 13.4661 51.7148 14.0348 51.9699 14.6966C52.2249 15.3515 52.3525 16.0684 52.3525 16.8474C52.3525 17.5712 52.2318 18.2571 51.9906 18.9051C51.7493 19.5461 51.3874 20.1114 50.9048 20.6009C50.4224 21.0833 49.8192 21.4694 49.0954 21.7589C48.3715 22.0416 47.5306 22.1828 46.5724 22.1828C45.628 22.1828 44.7939 22.0484 44.0701 21.7796C43.3531 21.5039 42.7501 21.1281 42.2606 20.6525C41.7781 20.17 41.4127 19.6048 41.1646 18.9568C40.9232 18.3019 40.8026 17.5987 40.8026 16.8474ZM44.2459 16.8474C44.2459 17.3024 44.2872 17.7366 44.37 18.1502C44.4526 18.5569 44.5837 18.9154 44.7629 19.2256C44.949 19.5358 45.1903 19.784 45.4867 19.9701C45.7831 20.1493 46.145 20.2389 46.5724 20.2389C46.9653 20.2389 47.3065 20.1562 47.596 19.9907C47.8925 19.8254 48.1337 19.5944 48.3199 19.298C48.5129 19.0016 48.6577 18.6465 48.7541 18.233C48.8506 17.8124 48.8989 17.3506 48.8989 16.8474C48.8989 16.3924 48.8541 15.9615 48.7645 15.5549C48.6818 15.1413 48.5474 14.7794 48.3612 14.4691C48.1751 14.1521 47.9339 13.9039 47.6374 13.7247C47.3479 13.5386 46.9928 13.4455 46.5724 13.4455C46.1519 13.4455 45.7935 13.5351 45.497 13.7144C45.2006 13.8936 44.9594 14.1382 44.7732 14.4485C44.5871 14.7587 44.4526 15.1206 44.37 15.5342C44.2872 15.9478 44.2459 16.3855 44.2459 16.8474Z" fill="white" fill-opacity="0.9"/>
<path d="M60.84 20.0633C60.6538 20.4079 60.4263 20.7008 60.1575 20.9422C59.8956 21.1834 59.6026 21.3833 59.2786 21.5419C58.9615 21.6935 58.6203 21.8072 58.2549 21.8831C57.8964 21.952 57.5277 21.9865 57.1486 21.9865C56.5143 21.9865 55.9353 21.8728 55.4114 21.6452C54.8875 21.4178 54.436 21.0903 54.0569 20.663C53.6846 20.2287 53.3951 19.6979 53.1883 19.0706C52.9815 18.4433 52.8781 17.7263 52.8781 16.9199C52.8781 16.1616 52.9746 15.4515 53.1676 14.7898C53.3606 14.128 53.6398 13.5525 54.0052 13.063C54.3774 12.5736 54.8324 12.1875 55.3701 11.9049C55.9077 11.6223 56.5213 11.481 57.2106 11.481C57.9964 11.481 58.6927 11.6326 59.2993 11.9359C59.9128 12.2393 60.4402 12.7356 60.8813 13.4249V13.1561C60.8813 12.6598 61.0157 12.2875 61.2846 12.0393C61.5603 11.7843 61.9395 11.6567 62.422 11.6567C62.7115 11.6567 62.9562 11.705 63.1561 11.8015C63.356 11.8912 63.5146 12.029 63.6317 12.2152C63.749 12.3944 63.8317 12.6184 63.8799 12.8873C63.9351 13.1491 63.9626 13.449 63.9626 13.7868V20.7147C63.9626 21.5557 63.8558 22.307 63.6421 22.9688C63.4353 23.6305 63.1113 24.189 62.6701 24.6439C62.229 25.0988 61.6637 25.4435 60.9743 25.6779C60.2851 25.9192 59.4647 26.0398 58.5135 26.0398C57.8448 26.0398 57.252 26.0088 56.7349 25.9467C56.2248 25.8916 55.7836 25.8054 55.4114 25.6883C55.0392 25.5572 54.7566 25.4125 54.5635 25.254C54.3774 25.0954 54.2843 24.8886 54.2843 24.6336C54.2843 24.4888 54.305 24.351 54.3464 24.2199C54.3878 24.089 54.4498 23.9718 54.5325 23.8684C54.6221 23.7719 54.7358 23.6926 54.8738 23.6305C55.0185 23.5755 55.1942 23.5478 55.4011 23.5478C55.6216 23.5478 55.8422 23.5616 56.0628 23.5892C56.2903 23.6168 56.5247 23.6444 56.766 23.6719C57.0141 23.7064 57.2726 23.7374 57.5415 23.765C57.8172 23.7925 58.1136 23.8064 58.4307 23.8064C58.8098 23.8064 59.1476 23.7684 59.4441 23.6926C59.7405 23.6168 59.992 23.4824 60.1988 23.2893C60.4057 23.0963 60.5642 22.8378 60.6745 22.5138C60.7848 22.1967 60.84 21.79 60.84 21.2937V20.0633ZM60.84 16.8475C60.84 16.3442 60.802 15.8858 60.7262 15.4723C60.6573 15.0586 60.5366 14.7071 60.3643 14.4175C60.192 14.1211 59.9611 13.8937 59.6716 13.7351C59.382 13.5697 59.0201 13.487 58.5858 13.487C58.1584 13.487 57.8034 13.5731 57.5208 13.7454C57.2451 13.9178 57.0245 14.1556 56.8591 14.4589C56.6936 14.7623 56.5764 15.1172 56.5074 15.524C56.4454 15.9307 56.4144 16.365 56.4144 16.8268C56.4144 17.8815 56.6005 18.6743 56.9728 19.205C57.345 19.7358 57.8861 20.0012 58.5961 20.0012C58.927 19.9943 59.2269 19.9322 59.4957 19.815C59.7714 19.691 60.0093 19.5015 60.2092 19.2464C60.4091 18.9913 60.5642 18.6673 60.6745 18.2744C60.7848 17.8815 60.84 17.4059 60.84 16.8475Z" fill="white" fill-opacity="0.9"/>
<path d="M64.9156 16.8474C64.9156 16.1166 65.0328 15.4274 65.2672 14.7794C65.5085 14.1245 65.8669 13.5524 66.3426 13.0629C66.8251 12.5735 67.4248 12.184 68.1417 11.8945C68.8656 11.6049 69.7134 11.4602 70.6854 11.4602C71.616 11.4602 72.4397 11.5946 73.1566 11.8634C73.8736 12.1323 74.4767 12.508 74.9662 12.9906C75.4556 13.4661 75.8279 14.0348 76.0829 14.6966C76.338 15.3515 76.4655 16.0684 76.4655 16.8474C76.4655 17.5712 76.3449 18.2571 76.1036 18.9051C75.8623 19.5461 75.5004 20.1114 75.0179 20.6009C74.5353 21.0833 73.9321 21.4694 73.2084 21.7589C72.4846 22.0416 71.6436 22.1828 70.6854 22.1828C69.741 22.1828 68.9069 22.0484 68.1831 21.7796C67.4662 21.5039 66.863 21.1281 66.3736 20.6525C65.8911 20.17 65.5257 19.6048 65.2775 18.9568C65.0363 18.3019 64.9156 17.5987 64.9156 16.8474ZM68.3589 16.8474C68.3589 17.3024 68.4002 17.7366 68.483 18.1502C68.5657 18.5569 68.6966 18.9154 68.8759 19.2256C69.062 19.5358 69.3032 19.784 69.5997 19.9701C69.8961 20.1493 70.258 20.2389 70.6854 20.2389C71.0783 20.2389 71.4196 20.1562 71.7091 19.9907C72.0054 19.8254 72.2468 19.5944 72.4328 19.298C72.6259 19.0016 72.7706 18.6465 72.8671 18.233C72.9637 17.8124 73.0119 17.3506 73.0119 16.8474C73.0119 16.3924 72.9671 15.9615 72.8775 15.5549C72.7948 15.1413 72.6603 14.7794 72.4742 14.4691C72.2881 14.1521 72.0468 13.9039 71.7504 13.7247C71.4609 13.5386 71.1059 13.4455 70.6854 13.4455C70.2649 13.4455 69.9064 13.5351 69.61 13.7144C69.3136 13.8936 69.0723 14.1382 68.8862 14.4485C68.7001 14.7587 68.5657 15.1206 68.483 15.5342C68.4002 15.9478 68.3589 16.3855 68.3589 16.8474Z" fill="white" fill-opacity="0.9"/>
<path d="M80.8965 7.97566C80.8965 8.20314 80.8448 8.40649 80.7414 8.58572C80.638 8.75806 80.5036 8.90278 80.3382 9.02004C80.1728 9.13722 79.9797 9.22678 79.7591 9.28881C79.5455 9.34396 79.3249 9.37157 79.0973 9.37157C78.8561 9.37157 78.6252 9.34051 78.4046 9.27849C78.1909 9.21646 78.0014 9.1269 77.8359 9.00963C77.6705 8.88557 77.5395 8.73737 77.4429 8.56504C77.3465 8.39271 77.2982 8.19624 77.2982 7.97566C77.2982 7.77575 77.343 7.59308 77.4326 7.42763C77.5291 7.2553 77.6566 7.10709 77.8152 6.98301C77.9738 6.85893 78.1634 6.76242 78.384 6.69349C78.6045 6.62455 78.8458 6.59009 79.1078 6.59009C79.3352 6.59009 79.5558 6.62111 79.7695 6.68315C79.9901 6.74519 80.1831 6.8348 80.3485 6.95199C80.514 7.06918 80.645 7.21394 80.7414 7.38627C80.8448 7.55861 80.8965 7.75507 80.8965 7.97566ZM80.7414 20.0218C80.7414 20.6767 80.607 21.1799 80.3382 21.5315C80.0762 21.8831 79.6385 22.0588 79.025 22.0588C78.446 22.0588 78.0358 21.8831 77.7945 21.5315C77.5602 21.1799 77.4429 20.6767 77.4429 20.0218V13.6937C77.4429 13.0388 77.5602 12.5356 77.7945 12.1841C78.0358 11.8325 78.446 11.6567 79.025 11.6567C79.6385 11.6567 80.0762 11.8325 80.3382 12.1841C80.607 12.5356 80.7414 13.0388 80.7414 13.6937V20.0218Z" fill="white" fill-opacity="0.9"/>
<path d="M85.4979 16.8268C85.4979 17.2887 85.5323 17.7195 85.6013 18.1193C85.6771 18.5191 85.8012 18.8707 85.9735 19.174C86.1528 19.4704 86.3872 19.7048 86.6767 19.8771C86.973 20.0495 87.3384 20.1356 87.7727 20.1356C88.1725 20.1356 88.5068 20.0529 88.7759 19.8875C89.0512 19.7152 89.2718 19.4807 89.4377 19.1843C89.6027 18.881 89.7201 18.526 89.7889 18.1193C89.8648 17.7126 89.9027 17.2714 89.9027 16.7958C89.9027 16.4167 89.8754 16.0306 89.8198 15.6377C89.7651 15.2378 89.6618 14.876 89.5101 14.552C89.3583 14.228 89.1483 13.9626 88.8792 13.7558C88.6101 13.549 88.2589 13.4456 87.8244 13.4456C87.3901 13.4456 87.0213 13.5145 86.718 13.6524C86.4216 13.7903 86.1803 14.0005 85.9942 14.2831C85.8149 14.5658 85.6874 14.9208 85.6117 15.3481C85.5358 15.7687 85.4979 16.2615 85.4979 16.8268ZM85.4876 13.6937C85.6599 13.3284 85.8805 13.0079 86.1494 12.7321C86.4181 12.4564 86.7146 12.2255 87.0386 12.0393C87.3626 11.8532 87.7004 11.7153 88.0519 11.6258C88.4106 11.5292 88.7654 11.481 89.1165 11.481C89.7509 11.481 90.3236 11.6223 90.8336 11.9049C91.3436 12.1875 91.7777 12.5736 92.1359 13.063C92.5012 13.5456 92.7809 14.1177 92.9742 14.7795C93.1665 15.4343 93.2636 16.1375 93.2636 16.8888C93.2636 17.6678 93.1595 18.3812 92.953 19.0292C92.7536 19.6772 92.4668 20.2356 92.0945 20.7043C91.7292 21.1662 91.288 21.528 90.7709 21.79C90.2609 22.052 89.6927 22.1829 89.0654 22.1829C88.2933 22.1829 87.6038 22.0037 86.9972 21.6452C86.3906 21.2868 85.8874 20.7836 85.4876 20.1356V23.8581C85.4876 24.5129 85.3531 25.0162 85.0843 25.3677C84.8223 25.7192 84.3846 25.8951 83.7711 25.8951C83.1921 25.8951 82.7819 25.7192 82.5406 25.3677C82.3063 25.0162 82.1891 24.5129 82.1891 23.8581V13.6937C82.1891 13.0388 82.3063 12.5356 82.5406 12.1841C82.7819 11.8326 83.1921 11.6567 83.7711 11.6567C84.3846 11.6567 84.8223 11.8326 85.0843 12.1841C85.3531 12.5356 85.4876 13.0388 85.4876 13.6937Z" fill="white" fill-opacity="0.9"/>
<path d="M96.9002 14.4278C96.9002 14.6966 97.0175 14.9069 97.2514 15.0585C97.4861 15.2033 97.8099 15.3239 98.2237 15.4205C98.6164 15.51 99.0196 15.5962 99.4334 15.6789C99.8472 15.7617 100.25 15.8582 100.643 15.9685C101.036 16.0718 101.405 16.196 101.75 16.3407C102.094 16.4855 102.397 16.6681 102.659 16.8887C102.921 17.1024 103.128 17.3644 103.28 17.6745C103.431 17.9779 103.507 18.3433 103.507 18.7706C103.507 19.3083 103.397 19.7874 103.176 20.2079C102.956 20.6215 102.643 20.973 102.236 21.2626C101.836 21.5521 101.357 21.7761 100.798 21.9347C100.24 22.0933 99.6231 22.1759 98.9472 22.1828C98.3067 22.1828 97.689 22.1415 97.0961 22.0588C96.504 21.983 95.9764 21.8623 95.514 21.6968C95.0596 21.5314 94.6943 21.3281 94.4181 21.0868C94.1428 20.8386 94.0052 20.5491 94.0052 20.2183C94.0052 19.9287 94.0978 19.7046 94.284 19.5461C94.4702 19.3876 94.7075 19.3083 94.9978 19.3083C95.1081 19.3083 95.2387 19.3289 95.3905 19.3703C95.5422 19.4117 95.7072 19.4634 95.8864 19.5254C96.0655 19.5875 96.2552 19.6564 96.4555 19.7323C96.662 19.8012 96.8755 19.8632 97.0961 19.9184C97.3722 19.9942 97.6546 20.0563 97.944 20.1045C98.2405 20.1458 98.544 20.1666 98.8546 20.1666C99.047 20.1666 99.2367 20.1493 99.4228 20.1149C99.609 20.0735 99.7749 20.0149 99.9196 19.9391C100.071 19.8563 100.195 19.7529 100.292 19.6289C100.388 19.5048 100.446 19.3531 100.468 19.1739C100.488 19.1325 100.505 19.0911 100.519 19.0498C100.533 19.0085 100.54 18.9602 100.54 18.9051C100.54 18.712 100.45 18.5397 100.271 18.388C100.099 18.2364 99.8534 18.1157 99.5367 18.0261C99.0055 17.9021 98.499 17.7884 98.0164 17.6849C97.5346 17.5815 97.0864 17.4712 96.6725 17.3541C96.2658 17.2369 95.8934 17.1024 95.5555 16.9507C95.2246 16.7991 94.9422 16.613 94.7075 16.3924C94.4808 16.1718 94.3008 15.9064 94.1702 15.5962C94.0458 15.286 93.984 14.9103 93.984 14.4691C93.984 13.9935 94.0908 13.5696 94.3043 13.1973C94.5249 12.8181 94.839 12.5011 95.2458 12.246C95.6525 11.9909 96.1449 11.798 96.7246 11.667C97.3034 11.5291 97.9581 11.4602 98.6887 11.4602C99.9981 11.4602 100.994 11.6188 101.677 11.9358C102.366 12.246 102.711 12.6527 102.711 13.156C102.711 13.4386 102.618 13.6558 102.432 13.8074C102.245 13.9521 102.021 14.0245 101.76 14.0245C101.622 14.0245 101.477 14.0004 101.325 13.9521C101.18 13.897 101.005 13.8384 100.798 13.7764C100.591 13.7075 100.343 13.6489 100.054 13.6006C99.7714 13.5455 99.4193 13.5179 98.9993 13.5179C98.6817 13.5179 98.3922 13.5316 98.1302 13.5592C97.8752 13.5868 97.6546 13.635 97.4684 13.7039C97.2893 13.7729 97.1481 13.8659 97.0449 13.9832C96.9478 14.1004 96.9002 14.2485 96.9002 14.4278Z" fill="white" fill-opacity="0.9"/>
<path d="M107.705 18.2227C107.705 18.5467 107.746 18.8293 107.829 19.0706C107.918 19.3119 108.039 19.5152 108.191 19.6807C108.343 19.8392 108.518 19.9599 108.718 20.0425C108.925 20.1184 109.146 20.1564 109.379 20.1564C109.656 20.1564 109.921 20.115 110.176 20.0322C110.431 19.9495 110.655 19.8219 110.849 19.6496C111.048 19.4773 111.207 19.2601 111.324 18.9982C111.441 18.7363 111.5 18.4295 111.5 18.078V13.6937C111.5 13.0389 111.617 12.5357 111.851 12.1841C112.093 11.8326 112.503 11.6567 113.082 11.6567C113.695 11.6567 114.133 11.8326 114.395 12.1841C114.664 12.5357 114.798 13.0389 114.798 13.6937V20.0219C114.798 20.6768 114.664 21.18 114.395 21.5315C114.133 21.8831 113.695 22.0589 113.082 22.0589C112.503 22.0589 112.093 21.8831 111.851 21.5315C111.617 21.18 111.5 20.6768 111.5 20.0219C111.355 20.339 111.165 20.6285 110.931 20.8905C110.703 21.1524 110.435 21.3799 110.124 21.5729C109.821 21.7591 109.484 21.9038 109.111 22.0072C108.746 22.1106 108.349 22.1623 107.922 22.1623C107.46 22.1623 107.016 22.083 106.588 21.9245C106.168 21.7591 105.795 21.5177 105.471 21.2006C105.148 20.8767 104.889 20.4768 104.696 20.0012C104.503 19.5256 104.406 18.9706 104.406 18.3364V13.6937C104.406 13.0389 104.524 12.5357 104.758 12.1841C104.999 11.8326 105.409 11.6567 105.989 11.6567C106.602 11.6567 107.039 11.8326 107.301 12.1841C107.571 12.5357 107.705 13.0389 107.705 13.6937V18.2227Z" fill="white" fill-opacity="0.9"/>
<path d="M116.296 13.6937C116.296 13.0388 116.413 12.5356 116.648 12.1841C116.889 11.8326 117.299 11.6567 117.878 11.6567C118.492 11.6567 118.93 11.8326 119.192 12.1841C119.46 12.5356 119.595 13.0388 119.595 13.6937C119.733 13.3628 119.919 13.063 120.154 12.7942C120.395 12.5184 120.667 12.2841 120.97 12.091C121.281 11.898 121.615 11.7498 121.973 11.6464C122.331 11.5361 122.704 11.481 123.09 11.481C123.449 11.481 123.8 11.5292 124.145 11.6258C124.496 11.7153 124.821 11.8635 125.117 12.0704C125.42 12.2702 125.685 12.5253 125.913 12.8355C126.141 13.1457 126.316 13.518 126.441 13.9523C126.654 13.4904 126.906 13.101 127.195 12.7838C127.484 12.4667 127.798 12.2116 128.136 12.0187C128.473 11.8256 128.826 11.6878 129.191 11.605C129.563 11.5223 129.935 11.481 130.307 11.481C130.748 11.481 131.169 11.5603 131.569 11.7188C131.976 11.8773 132.33 12.1186 132.634 12.4426C132.944 12.7597 133.189 13.163 133.368 13.6524C133.554 14.1349 133.647 14.7002 133.647 15.3481V20.0219C133.647 20.6768 133.513 21.18 133.243 21.5315C132.982 21.8831 132.544 22.0589 131.931 22.0589C131.352 22.0589 130.941 21.8831 130.701 21.5315C130.466 21.18 130.349 20.6768 130.349 20.0219V15.4929C130.349 15.1827 130.307 14.907 130.225 14.6657C130.142 14.4175 130.025 14.2108 129.873 14.0453C129.728 13.873 129.556 13.7454 129.356 13.6628C129.156 13.5731 128.942 13.5283 128.715 13.5283C128.432 13.5283 128.164 13.5731 127.909 13.6628C127.654 13.7523 127.43 13.8902 127.236 14.0763C127.05 14.2625 126.899 14.5003 126.781 14.7898C126.671 15.0793 126.616 15.4275 126.616 15.8341V20.0219C126.616 20.6768 126.481 21.18 126.213 21.5315C125.951 21.8831 125.513 22.0589 124.899 22.0589C124.32 22.0589 123.91 21.8831 123.669 21.5315C123.434 21.18 123.317 20.6768 123.317 20.0219V15.6893C123.317 14.9794 123.169 14.4417 122.873 14.0763C122.583 13.711 122.187 13.5283 121.684 13.5283C121.387 13.5283 121.111 13.5765 120.856 13.6731C120.601 13.7696 120.381 13.9109 120.194 14.097C120.008 14.2831 119.86 14.514 119.75 14.7898C119.646 15.0655 119.595 15.3826 119.595 15.741V20.0219C119.595 20.6768 119.46 21.18 119.192 21.5315C118.93 21.8831 118.492 22.0589 117.878 22.0589C117.299 22.0589 116.889 21.8831 116.648 21.5315C116.413 21.18 116.296 20.6768 116.296 20.0219V13.6937Z" fill="white" fill-opacity="0.9"/>
<path d="M15.0001 20.294C12.0762 20.294 9.70593 17.9238 9.70593 14.9999C9.70593 12.0761 12.0762 9.70581 15.0001 9.70581C17.9239 9.70581 20.2942 12.0761 20.2942 14.9999C20.2942 17.9238 17.9239 20.294 15.0001 20.294Z" fill="white" fill-opacity="0.9"/>
<path d="M4.74477 16.8086C3.21058 17.0791 2.15897 18.5611 2.7479 20.0034C3.57011 22.0169 4.88184 23.8109 6.58241 25.2128C9.0141 27.2172 12.0812 28.2883 15.232 28.2334C18.3829 28.1784 21.4108 27.0009 23.7711 24.9127C25.4216 23.4524 26.67 21.6137 27.4215 19.5727C27.9597 18.1107 26.8569 16.6663 25.3142 16.4495C23.7716 16.2327 22.3865 17.3556 21.6245 18.7144C21.2115 19.4509 20.6753 20.1192 20.0329 20.6875C18.6787 21.8856 16.9414 22.5612 15.1337 22.5927C13.3258 22.6242 11.566 22.0098 10.1709 20.8596C9.50901 20.3141 8.94986 19.665 8.51135 18.9433C7.70242 17.6119 6.27896 16.538 4.74477 16.8086Z" fill="white" fill-opacity="0.9"/>
<path d="M28.1312 16.6539C28.1988 16.1121 28.2335 15.5601 28.2335 14.9999C28.2335 7.69029 22.3079 1.76465 14.9982 1.76465C7.68858 1.76465 1.76294 7.69029 1.76294 14.9999C1.76294 15.7188 1.82025 16.4242 1.93055 17.112C2.53847 16.2798 3.48729 15.6857 4.51214 15.505C5.62098 15.3095 6.62875 15.5784 7.48083 16.0811C7.43049 15.728 7.40444 15.367 7.40444 14.9999C7.40444 10.806 10.8043 7.40615 14.9982 7.40615C19.1921 7.40615 22.592 10.806 22.592 14.9999C22.592 15.2765 22.5772 15.5496 22.5484 15.8184C23.3825 15.2861 24.3805 14.9819 25.4957 15.1387C26.5259 15.2835 27.4946 15.8438 28.1312 16.6539Z" fill="white" fill-opacity="0.9"/>
</svg>
