<svg width="140" height="28" viewBox="0 0 140 28" fill="none" xmlns="http://www.w3.org/2000/svg">
<g clip-path="url(#clip0_2042_1337)">
<path d="M42.0625 21.2085V6.95654H44.75V18.7653H51.2651V21.2085H42.0625Z" fill="white" fill-opacity="0.9"/>
<path d="M57.067 21.4933C56.0626 21.4933 55.16 21.2897 54.3592 20.8825C53.5583 20.4753 52.9271 19.8849 52.4656 19.1112C52.0042 18.3375 51.7734 17.4078 51.7734 16.3219V15.9961C51.7734 14.9103 52.0042 13.9805 52.4656 13.2068C52.9271 12.4331 53.5583 11.8427 54.3592 11.4355C55.16 11.0283 56.0626 10.8247 57.067 10.8247C58.0714 10.8247 58.9741 11.0283 59.7749 11.4355C60.5757 11.8427 61.2068 12.4331 61.6684 13.2068C62.1299 13.9805 62.3606 14.9103 62.3606 15.9961V16.3219C62.3606 17.4078 62.1299 18.3375 61.6684 19.1112C61.2068 19.8849 60.5757 20.4753 59.7749 20.8825C58.9741 21.2897 58.0714 21.4933 57.067 21.4933ZM57.067 19.213C57.8542 19.213 58.5058 18.9619 59.0216 18.4597C59.5373 17.9439 59.7953 17.2109 59.7953 16.2608V16.0572C59.7953 15.107 59.5373 14.3809 59.0216 13.8786C58.5193 13.3629 57.8678 13.105 57.067 13.105C56.2798 13.105 55.6283 13.3629 55.1124 13.8786C54.5966 14.3809 54.3388 15.107 54.3388 16.0572V16.2608C54.3388 17.2109 54.5966 17.9439 55.1124 18.4597C55.6283 18.9619 56.2798 19.213 57.067 19.213Z" fill="white" fill-opacity="0.9"/>
<path d="M63.3242 16.1997V15.874C63.3242 14.8152 63.5346 13.9126 63.9554 13.166C64.3761 12.406 64.9326 11.8291 65.6249 11.4355C66.3307 11.0283 67.0976 10.8247 67.9256 10.8247C68.8485 10.8247 69.5476 10.9875 70.0226 11.3133C70.4977 11.6391 70.8438 11.9784 71.061 12.3313H71.4275V11.1097H73.9521V22.9999C73.9521 23.6922 73.7485 24.2419 73.3413 24.6491C72.9341 25.0699 72.3912 25.2802 71.7125 25.2802H64.953V23.0407H70.8167C71.1968 23.0407 71.3867 22.8371 71.3867 22.4298V19.8034H71.0203C70.8846 20.0206 70.6945 20.2445 70.4502 20.4753C70.2059 20.6924 69.8802 20.8757 69.4729 21.025C69.0657 21.1743 68.55 21.249 67.9256 21.249C67.0976 21.249 66.3307 21.0521 65.6249 20.6586C64.9326 20.2513 64.3761 19.6745 63.9554 18.9279C63.5346 18.1679 63.3242 17.2584 63.3242 16.1997ZM68.6586 19.0094C69.4458 19.0094 70.1041 18.7582 70.6334 18.2561C71.1628 17.7538 71.4275 17.0481 71.4275 16.1387V15.9351C71.4275 15.012 71.1628 14.3062 70.6334 13.8176C70.1176 13.3154 69.4594 13.0643 68.6586 13.0643C67.8712 13.0643 67.213 13.3154 66.6836 13.8176C66.1542 14.3062 65.8895 15.012 65.8895 15.9351V16.1387C65.8895 17.0481 66.1542 17.7538 66.6836 18.2561C67.213 18.7582 67.8712 19.0094 68.6586 19.0094Z" fill="white" fill-opacity="0.9"/>
<path d="M80.6882 21.4933C79.6838 21.4933 78.7811 21.2897 77.9802 20.8825C77.1794 20.4753 76.5483 19.8849 76.0868 19.1112C75.6254 18.3375 75.3945 17.4078 75.3945 16.3219V15.9961C75.3945 14.9103 75.6254 13.9805 76.0868 13.2068C76.5483 12.4331 77.1794 11.8427 77.9802 11.4355C78.7811 11.0283 79.6838 10.8247 80.6882 10.8247C81.6926 10.8247 82.5952 11.0283 83.3961 11.4355C84.1969 11.8427 84.828 12.4331 85.2896 13.2068C85.751 13.9805 85.9818 14.9103 85.9818 15.9961V16.3219C85.9818 17.4078 85.751 18.3375 85.2896 19.1112C84.828 19.8849 84.1969 20.4753 83.3961 20.8825C82.5952 21.2897 81.6926 21.4933 80.6882 21.4933ZM80.6882 19.213C81.4754 19.213 82.127 18.9619 82.6427 18.4597C83.1585 17.9439 83.4164 17.2109 83.4164 16.2608V16.0572C83.4164 15.107 83.1585 14.3809 82.6427 13.8786C82.1405 13.3629 81.489 13.105 80.6882 13.105C79.9009 13.105 79.2494 13.3629 78.7336 13.8786C78.2178 14.3809 77.9599 15.107 77.9599 16.0572V16.2608C77.9599 17.2109 78.2178 17.9439 78.7336 18.4597C79.2494 18.9619 79.9009 19.213 80.6882 19.213Z" fill="white" fill-opacity="0.9"/>
<path d="M87.4329 21.2084V11.1098H89.9984V21.2084H87.4329ZM88.7157 9.92902C88.2537 9.92902 87.8608 9.77966 87.5344 9.48102C87.2225 9.18247 87.0664 8.78881 87.0664 8.30018C87.0664 7.81155 87.2225 7.41792 87.5344 7.11931C87.8608 6.8207 88.2537 6.67139 88.7157 6.67139C89.1908 6.67139 89.5846 6.8207 89.8961 7.11931C90.2084 7.41792 90.3651 7.81155 90.3651 8.30018C90.3651 8.78881 90.2084 9.18247 89.8961 9.48102C89.5846 9.77966 89.1908 9.92902 88.7157 9.92902Z" fill="white" fill-opacity="0.9"/>
<path d="M91.9258 25.2802V11.1097H94.4502V12.3313H94.8168C95.0469 11.9377 95.4065 11.5916 95.8957 11.2929C96.3839 10.9808 97.083 10.8247 97.993 10.8247C98.8068 10.8247 99.5602 11.0283 100.252 11.4355C100.945 11.8291 101.502 12.4127 101.922 13.1864C102.343 13.9601 102.554 14.8967 102.554 15.9961V16.3219C102.554 17.4213 102.343 18.3578 101.922 19.1315C101.502 19.9052 100.945 20.4956 100.252 20.9029C99.5602 21.2964 98.8068 21.4933 97.993 21.4933C97.3823 21.4933 96.866 21.4187 96.4452 21.2693C96.0383 21.1336 95.7058 20.9571 95.4477 20.7399C95.2035 20.5092 95.0067 20.2785 94.857 20.0477H94.4904V25.2802H91.9258ZM97.2187 19.2537C98.0202 19.2537 98.6782 19.0026 99.1935 18.5004C99.7229 17.9846 99.988 17.2381 99.988 16.2608V16.0572C99.988 15.0799 99.7229 14.3402 99.1935 13.8379C98.6642 13.3221 98.0062 13.0643 97.2187 13.0643C96.432 13.0643 95.7732 13.3221 95.2438 13.8379C94.7144 14.3402 94.4502 15.0799 94.4502 16.0572V16.2608C94.4502 17.2381 94.7144 17.9846 95.2438 18.5004C95.7732 19.0026 96.432 19.2537 97.2187 19.2537Z" fill="white" fill-opacity="0.9"/>
<path d="M108.186 21.4933C106.869 21.4933 105.791 21.2082 104.949 20.6382C104.108 20.0681 103.599 19.2537 103.422 18.195L105.783 17.5842C105.879 18.0593 106.035 18.4325 106.253 18.704C106.483 18.9754 106.761 19.1723 107.087 19.2944C107.426 19.403 107.792 19.4573 108.186 19.4573C108.784 19.4573 109.225 19.3555 109.509 19.1519C109.795 18.9347 109.937 18.67 109.937 18.3578C109.937 18.0456 109.802 17.8082 109.53 17.6452C109.258 17.4688 108.824 17.3263 108.227 17.2177L107.657 17.1159C106.951 16.9802 106.307 16.7969 105.723 16.5662C105.139 16.3219 104.671 15.9893 104.318 15.5685C103.965 15.1478 103.788 14.6049 103.788 13.9398C103.788 12.9353 104.155 12.1684 104.888 11.6391C105.621 11.0961 106.585 10.8247 107.779 10.8247C108.906 10.8247 109.843 11.0757 110.589 11.578C111.335 12.0802 111.824 12.7385 112.055 13.553L109.673 14.2859C109.564 13.7701 109.34 13.4036 109.001 13.1864C108.674 12.9692 108.268 12.8607 107.779 12.8607C107.29 12.8607 106.917 12.9489 106.659 13.1253C106.401 13.2883 106.273 13.519 106.273 13.8176C106.273 14.1433 106.408 14.3877 106.679 14.5505C106.951 14.6998 107.317 14.8152 107.779 14.8967L108.349 14.9985C109.109 15.1342 109.795 15.3175 110.405 15.5482C111.03 15.7654 111.518 16.0843 111.872 16.5051C112.237 16.9123 112.421 17.4688 112.421 18.1746C112.421 19.2334 112.034 20.0546 111.261 20.6382C110.501 21.2082 109.476 21.4933 108.186 21.4933Z" fill="white" fill-opacity="0.9"/>
<path d="M117.601 21.3713C116.814 21.3713 116.122 21.1948 115.524 20.842C114.941 20.4755 114.486 19.9733 114.16 19.3353C113.835 18.6973 113.672 17.9644 113.672 17.1364V11.1099H116.237V16.9328C116.237 17.6929 116.42 18.263 116.787 18.6431C117.167 19.0231 117.703 19.2131 118.395 19.2131C119.183 19.2131 119.793 18.9553 120.227 18.4395C120.662 17.9101 120.879 17.1771 120.879 16.2406V11.1099H123.445V21.2084H120.92V19.8851H120.554C120.391 20.2244 120.085 20.5569 119.638 20.8827C119.19 21.2084 118.511 21.3713 117.601 21.3713Z" fill="white" fill-opacity="0.9"/>
<path d="M125.383 21.2082V11.1096H127.907V12.2091H128.274C128.451 11.8697 128.743 11.5779 129.15 11.3336C129.557 11.0757 130.093 10.9468 130.758 10.9468C131.477 10.9468 132.055 11.0893 132.489 11.3743C132.923 11.6458 133.255 12.0054 133.486 12.4534H133.853C134.084 12.0191 134.409 11.6594 134.83 11.3743C135.251 11.0893 135.848 10.9468 136.621 10.9468C137.246 10.9468 137.81 11.0825 138.312 11.354C138.827 11.6119 139.235 12.0123 139.533 12.5552C139.846 13.0846 140.001 13.7564 140.001 14.5709V21.2082H137.436V14.7541C137.436 14.1976 137.293 13.7836 137.009 13.5121C136.724 13.2271 136.323 13.0846 135.808 13.0846C135.224 13.0846 134.769 13.2745 134.443 13.6546C134.131 14.0211 133.975 14.5505 133.975 15.2427V21.2082H131.41V14.7541C131.41 14.1976 131.267 13.7836 130.982 13.5121C130.697 13.2271 130.297 13.0846 129.781 13.0846C129.197 13.0846 128.742 13.2745 128.416 13.6546C128.104 14.0211 127.948 14.5505 127.948 15.2427V21.2082H125.383Z" fill="white" fill-opacity="0.9"/>
<path d="M33.9324 13.5736C33.9324 9.97369 32.5023 6.52116 29.9567 3.97562C27.4112 1.43007 23.9587 4.72076e-07 20.3588 0C16.7588 -4.72075e-07 13.3063 1.43007 10.7608 3.97562C8.21523 6.52116 6.78516 9.97369 6.78516 13.5736H11.027C12.4326 13.5736 13.5288 12.3957 14.0436 11.0877C14.3816 10.229 14.8946 9.43985 15.5597 8.77459C16.8325 7.50183 18.5588 6.7868 20.3588 6.7868C22.1587 6.7868 23.885 7.50183 25.1578 8.77459C26.4306 10.0474 27.1455 11.7737 27.1455 13.5736H33.9324Z" fill="white" fill-opacity="0.9"/>
<path d="M26.1148 18.7681C26.797 17.1212 27.1481 15.3562 27.1481 13.5737H33.9342C33.9342 21.0702 27.857 27.1473 20.3606 27.1473C19.1866 27.1473 18.0473 26.9982 16.9609 26.7181C17.5756 26.5597 18.1798 26.358 18.7689 26.1141C20.4157 25.4319 21.912 24.4321 23.1725 23.1717C24.4329 21.9113 25.4328 20.4149 26.1148 18.7681Z" fill="white" fill-opacity="0.9"/>
<path d="M0 13.5735C-2.55004e-07 15.356 0.351091 17.1211 1.03323 18.7679C1.71537 20.4148 2.71519 21.9111 3.97562 23.1715C5.23604 24.4319 6.73238 25.4317 8.3792 26.1139C10.026 26.796 11.7911 27.1471 13.5736 27.1471C15.3561 27.1471 17.1211 26.796 18.768 26.1139C20.4148 25.4317 21.9111 24.4319 23.1716 23.1715C24.432 21.9111 25.4318 20.4148 26.1139 18.7679C26.7961 17.1211 27.1472 15.356 27.1472 13.5735H22.9054C21.4998 13.5735 20.4036 14.7514 19.8887 16.0593C19.8741 16.0965 19.8591 16.1336 19.8438 16.1707C19.5027 16.9941 19.0028 17.7423 18.3726 18.3725C17.7424 19.0027 16.9942 19.5027 16.1708 19.8437C15.3474 20.1848 14.4649 20.3603 13.5736 20.3603C12.6823 20.3603 11.7998 20.1848 10.9764 19.8437C10.153 19.5027 9.40485 19.0027 8.77459 18.3725C8.14439 17.7423 7.64448 16.9941 7.30341 16.1707C6.96234 15.3473 6.7868 14.4648 6.7868 13.5735H0Z" fill="white" fill-opacity="0.9"/>
<path d="M0 13.5736C0 6.07709 6.07709 0 13.5735 0C14.7473 0 15.8862 0.148965 16.9725 0.429033C14.6416 1.0295 12.4913 2.24468 10.7603 3.97562C8.21479 6.52114 6.78474 9.97369 6.78474 13.5736H0Z" fill="white" fill-opacity="0.9"/>
</g>
<defs>
<clipPath id="clip0_2042_1337">
<rect width="140" height="28" fill="white"/>
</clipPath>
</defs>
</svg>
