<svg width="32" height="32" viewBox="0 0 32 32" fill="none" xmlns="http://www.w3.org/2000/svg">
<path d="M26.6666 32H5.33329C4.59596 32 3.99996 31.404 3.99996 30.6667C3.99996 26.2547 7.58796 22.6667 12 22.6667H20C24.412 22.6667 28 26.2547 28 30.6667C28 31.404 27.404 32 26.6666 32ZM13.316 12.5333H14.7386L14.0466 9.208L13.316 12.5333ZM27.3333 8H26.5986C26.2626 5.008 23.7466 2.66667 20.6666 2.66667H17.3333V1.33333C17.3333 0.597333 16.7373 0 16 0C15.2626 0 14.6666 0.597333 14.6666 1.33333V2.66667H11.3333C8.25329 2.66667 5.73729 5.008 5.40129 8H4.66663C3.56396 8 2.66663 8.89733 2.66663 10V12.6667C2.66663 13.7693 3.56396 14.6667 4.66663 14.6667H5.40129C5.73729 17.6587 8.25329 20 11.3333 20H20.6666C23.7466 20 26.2626 17.6587 26.5986 14.6667H27.3333C28.436 14.6667 29.3333 13.7693 29.3333 12.6667V10C29.3333 8.89733 28.436 8 27.3333 8ZM16.364 16C15.8506 16.0227 15.3906 15.672 15.2866 15.1667L15.1826 14.6667H12.848L12.736 15.1773C12.6306 15.6573 12.2053 16 11.7133 16C11.048 16 10.5506 15.3867 10.6893 14.736L12.0133 8.512C12.208 7.50533 13.0266 6.668 14.044 6.668H14.0466C15.0893 6.67333 15.8706 7.472 16.092 8.56533L17.3893 14.7387C17.5253 15.3893 17.0293 16 16.3653 16H16.364ZM21.3333 14.9333C21.3333 15.5227 20.856 16 20.2666 16C19.6773 16 19.2 15.5227 19.2 14.9333V7.73467C19.2 7.14533 19.6773 6.668 20.2666 6.668C20.856 6.668 21.3333 7.14533 21.3333 7.73467V14.9333Z" fill="#997EFF"/>
</svg>
