<svg width="32" height="32" viewBox="0 0 32 32" fill="none" xmlns="http://www.w3.org/2000/svg">
<path d="M18.6667 9.33333V0.613333C19.9001 1.07911 21.0204 1.80175 21.9533 2.73333L26.5987 7.38133C27.5313 8.31317 28.2545 9.43319 28.72 10.6667H20C19.6464 10.6667 19.3072 10.5262 19.0572 10.2761C18.8071 10.0261 18.6667 9.68696 18.6667 9.33333ZM29.3333 13.98V25.3333C29.3312 27.1008 28.6282 28.7953 27.3784 30.045C26.1286 31.2948 24.4341 31.9979 22.6667 32H9.33334C7.56588 31.9979 5.87142 31.2948 4.62163 30.045C3.37185 28.7953 2.66879 27.1008 2.66667 25.3333V6.66667C2.66879 4.89921 3.37185 3.20474 4.62163 1.95496C5.87142 0.705176 7.56588 0.00211714 9.33334 0L15.3533 0C15.5707 0 15.7853 0.0173333 16 0.032V9.33333C16 10.3942 16.4214 11.4116 17.1716 12.1618C17.9217 12.9119 18.9391 13.3333 20 13.3333H29.3013C29.316 13.548 29.3333 13.7627 29.3333 13.98ZM18.6667 25.3333C18.6667 24.9797 18.5262 24.6406 18.2761 24.3905C18.0261 24.1405 17.687 24 17.3333 24H10.6667C10.313 24 9.97391 24.1405 9.72386 24.3905C9.47381 24.6406 9.33334 24.9797 9.33334 25.3333C9.33334 25.687 9.47381 26.0261 9.72386 26.2761C9.97391 26.5262 10.313 26.6667 10.6667 26.6667H17.3333C17.687 26.6667 18.0261 26.5262 18.2761 26.2761C18.5262 26.0261 18.6667 25.687 18.6667 25.3333ZM22.6667 20C22.6667 19.6464 22.5262 19.3072 22.2761 19.0572C22.0261 18.8071 21.687 18.6667 21.3333 18.6667H10.6667C10.313 18.6667 9.97391 18.8071 9.72386 19.0572C9.47381 19.3072 9.33334 19.6464 9.33334 20C9.33334 20.3536 9.47381 20.6928 9.72386 20.9428C9.97391 21.1929 10.313 21.3333 10.6667 21.3333H21.3333C21.687 21.3333 22.0261 21.1929 22.2761 20.9428C22.5262 20.6928 22.6667 20.3536 22.6667 20Z" fill="#997EFF"/>
</svg>
