<svg width="32" height="32" viewBox="0 0 32 32" fill="none" xmlns="http://www.w3.org/2000/svg">
<g clip-path="url(#clip0_139_1397)">
<path d="M24.9507 15.9998H18.6667C17.1939 15.9998 16 14.8058 16 13.3331V7.03176C16.0037 5.78863 15.4291 4.61438 14.4453 3.85444C13.5131 3.11619 12.2907 2.85307 11.1373 3.14244C3.29794 5.08844 -1.47962 13.0211 0.466439 20.8606C1.8375 26.3838 6.288 30.6103 11.8747 31.6944C19.5066 33.1553 26.9533 28.4103 28.8534 20.8758C29.1438 19.7209 28.8812 18.4966 28.1427 17.5624C27.374 16.5804 26.1978 16.0045 24.9507 15.9998Z" fill="#997EFF"/>
<path d="M31.5347 9.9279C31.2303 8.79653 30.777 7.71059 30.1867 6.69859C28.4111 3.65246 25.5106 1.42515 22.1094 0.495902C21.8853 0.435465 21.384 0.399902 21.384 0.399902C21.2049 0.399965 20.4334 0.399902 19.8227 0.89459C18.9251 1.6009 18.784 2.4039 18.7707 2.46659C18.7241 2.66321 18.6999 2.86453 18.6987 3.06659V9.33328C18.6987 11.5424 20.4896 13.3333 22.6987 13.3333H28.9907C29.8254 13.3357 30.6111 12.9393 31.1054 12.2666C31.4709 11.7738 31.6589 11.1718 31.6387 10.5586C31.6281 10.3451 31.5932 10.1335 31.5347 9.9279Z" fill="#997EFF"/>
</g>
<defs>
<clipPath id="clip0_139_1397">
<rect width="32" height="32" fill="white"/>
</clipPath>
</defs>
</svg>
