<svg width="141" height="35" viewBox="0 0 141 35" fill="none" xmlns="http://www.w3.org/2000/svg">
<g clip-path="url(#clip0_2042_1351)">
<path d="M22.6677 17.5231C23.8178 16.56 24.5491 15.1135 24.5491 13.4962C24.5491 11.8789 23.8178 10.4324 22.6677 9.46932C22.7995 9.4055 22.9264 9.33623 23.0472 9.26117C23.81 8.78686 24.7103 8.51294 25.6747 8.51294C28.4269 8.51294 30.6579 10.7441 30.6579 13.4962C30.6579 16.2484 28.4269 18.4794 25.6747 18.4794C24.7103 18.4794 23.81 18.2055 23.0472 17.7313C22.9264 17.6562 22.7995 17.5869 22.6677 17.5231Z" fill="white" fill-opacity="0.9"/>
<path d="M21.2843 14.2809C21.7987 12.8718 21.7088 11.2534 20.9001 9.8528C20.0914 8.45215 18.7348 7.5651 17.2573 7.30609C17.3396 7.18494 17.4147 7.06153 17.4818 6.9361C17.9053 6.14395 18.5481 5.45654 19.3832 4.97437C21.7667 3.59828 24.8145 4.41491 26.1905 6.79837C27.5666 9.18183 26.75 12.2296 24.3665 13.6056C23.5314 14.0878 22.6146 14.3007 21.7169 14.2715C21.5748 14.2668 21.4302 14.2703 21.2843 14.2809Z" fill="white" fill-opacity="0.9"/>
<path d="M18.4639 12.1649C18.2049 10.6874 17.3178 9.33079 15.9172 8.52212C14.5165 7.71345 12.8982 7.62356 11.4891 8.13798C11.4998 7.99195 11.5032 7.84747 11.4985 7.70533C11.4692 6.80755 11.6822 5.89085 12.1644 5.05569C13.5405 2.67224 16.5882 1.85561 18.9717 3.23169C21.3551 4.60778 22.1718 7.6555 20.7956 10.039C20.3135 10.8741 19.6261 11.5169 18.8339 11.9404C18.7085 12.0075 18.5851 12.0826 18.4639 12.1649Z" fill="white" fill-opacity="0.9"/>
<path d="M14.9632 11.7422C14.0001 10.5922 12.5536 9.86086 10.9363 9.86086C9.3189 9.86086 7.87242 10.5922 6.90938 11.7422C6.84559 11.6104 6.7763 11.4836 6.70121 11.3627C6.22692 10.5999 5.953 9.69959 5.953 8.73523C5.953 5.98304 8.18409 3.75195 10.9363 3.75195C13.6885 3.75195 15.9195 5.98304 15.9195 8.73523C15.9195 9.69959 15.6456 10.5999 15.1714 11.3627C15.0962 11.4836 15.0269 11.6104 14.9632 11.7422Z" fill="white" fill-opacity="0.9"/>
<path d="M11.7168 13.1265C10.3078 12.6121 8.68938 12.702 7.28873 13.5106C5.88807 14.3193 5.00102 15.6759 4.74202 17.1534C4.62087 17.0711 4.49745 16.996 4.37202 16.9289C3.57987 16.5054 2.89246 15.8626 2.41029 15.0275C1.03419 12.644 1.85082 9.59633 4.23429 8.22023C6.61775 6.84413 9.66545 7.66076 11.0416 10.0442C11.5238 10.8794 11.7367 11.7961 11.7073 12.6938C11.7027 12.836 11.7061 12.9805 11.7168 13.1265Z" fill="white" fill-opacity="0.9"/>
<path d="M9.6017 15.9468C8.1242 16.2058 6.76759 17.0928 5.95893 18.4935C5.15026 19.8941 5.06036 21.5125 5.57479 22.9215C5.42875 22.9108 5.28425 22.9074 5.14209 22.912C4.24432 22.9414 3.32762 22.7285 2.49247 22.2463C0.109006 20.8702 -0.707628 17.8225 0.668463 15.439C2.04455 13.0556 5.09227 12.2389 7.47573 13.615C8.31088 14.0972 8.95365 14.7846 9.37715 15.5767C9.4442 15.7021 9.51945 15.8255 9.6017 15.9468Z" fill="white" fill-opacity="0.9"/>
<path d="M9.17773 19.4476C8.02771 20.4107 7.29636 21.8572 7.29636 23.4745C7.29636 25.0918 8.02771 26.5384 9.17773 27.5014C9.04594 27.5651 8.91909 27.6345 8.79831 27.7096C8.03548 28.1838 7.13511 28.4577 6.17076 28.4577C3.41858 28.4577 1.1875 26.2267 1.1875 23.4745C1.1875 20.7223 3.41858 18.4912 6.17076 18.4912C7.13511 18.4912 8.03548 18.7651 8.79831 19.2395C8.91909 19.3145 9.04594 19.3838 9.17773 19.4476Z" fill="white" fill-opacity="0.9"/>
<path d="M10.5605 22.6907C10.046 24.0997 10.1359 25.7181 10.9446 27.1187C11.7533 28.5195 13.1099 29.4064 14.5874 29.6654C14.5051 29.7866 14.43 29.9101 14.3629 30.0355C13.9394 30.8276 13.2966 31.515 12.4615 31.9972C10.078 33.3733 7.03027 32.5566 5.65418 30.1732C4.27809 27.7897 5.09473 24.742 7.47818 23.3659C8.31334 22.8837 9.23006 22.6708 10.1278 22.7002C10.2699 22.7048 10.4144 22.7014 10.5605 22.6907Z" fill="white" fill-opacity="0.9"/>
<path d="M13.3805 24.8076C13.6395 26.2851 14.5266 27.6417 15.9272 28.4503C17.3279 29.259 18.9464 29.3489 20.3554 28.8345C20.3447 28.9805 20.3413 29.125 20.3459 29.2672C20.3753 30.1649 20.1623 31.0816 19.6802 31.9168C18.304 34.3003 15.2563 35.1169 12.8728 33.7407C10.4893 32.3647 9.67273 29.317 11.0489 26.9335C11.531 26.0984 12.2184 25.4556 13.0105 25.0321C13.136 24.965 13.2594 24.8898 13.3805 24.8076Z" fill="white" fill-opacity="0.9"/>
<path d="M16.8808 25.231C17.8438 26.381 19.2903 27.1123 20.9077 27.1123C22.5251 27.1123 23.9716 26.381 24.9346 25.231C24.9984 25.3628 25.0676 25.4896 25.1428 25.6103C25.617 26.3732 25.891 27.2736 25.891 28.2379C25.891 30.9901 23.6599 33.2212 20.9077 33.2212C18.1555 33.2212 15.9244 30.9901 15.9244 28.2379C15.9244 27.2736 16.1984 26.3732 16.6726 25.6103C16.7478 25.4896 16.817 25.3628 16.8808 25.231Z" fill="white" fill-opacity="0.9"/>
<path d="M20.1277 23.8474C21.5367 24.3618 23.1551 24.2719 24.5557 23.4633C25.9564 22.6546 26.8434 21.298 27.1024 19.8206C27.2236 19.9027 27.347 19.978 27.4724 20.045C28.2646 20.4685 28.952 21.1113 29.4342 21.9464C30.8103 24.3299 29.9936 27.3776 27.6102 28.7538C25.2267 30.1298 22.1791 29.3132 20.8029 26.9297C20.3207 26.0946 20.1078 25.1779 20.1371 24.2801C20.1418 24.138 20.1384 23.9935 20.1277 23.8474Z" fill="white" fill-opacity="0.9"/>
<path d="M25.889 18.4751C25.888 18.4769 25.887 18.4786 25.886 18.4804C25.0774 19.881 23.7207 20.7681 22.2433 21.0271C22.3254 21.1483 22.4007 21.2717 22.4677 21.3971C22.8912 22.1892 23.534 22.8766 24.3692 23.3588C26.7527 24.7349 29.8003 23.9182 31.1765 21.5348C32.3562 19.4914 31.9243 16.9598 30.2751 15.4119C29.5506 17.1505 27.8694 18.3907 25.889 18.4751Z" fill="white" fill-opacity="0.9"/>
<path d="M43.5302 9.0642V23.9475H40.2317V9.0642H43.5302ZM40.7546 23.9475L40.8149 21.0312H49.3627V23.9475H40.7546ZM49.879 18.8992C49.879 17.84 50.1002 16.9148 50.5427 16.1237C50.9852 15.3192 51.6086 14.6957 52.4132 14.2532C53.2176 13.8107 54.1562 13.5895 55.2289 13.5895C56.3016 13.5895 57.2334 13.8107 58.0245 14.2532C58.829 14.6957 59.4525 15.3192 59.895 16.1237C60.3374 16.9148 60.5587 17.84 60.5587 18.8992C60.5587 19.9585 60.3374 20.8837 59.895 21.6748C59.4525 22.4659 58.829 23.0826 58.0245 23.5251C57.2334 23.9676 56.3016 24.1888 55.2289 24.1888C54.1562 24.1888 53.2176 23.9676 52.4132 23.5251C51.6086 23.0826 50.9852 22.4659 50.5427 21.6748C50.1002 20.8837 49.879 19.9585 49.879 18.8992ZM52.9964 18.8791C52.9964 19.3886 53.0902 19.8378 53.2779 20.2267C53.4657 20.6021 53.7271 20.897 54.0623 21.1117C54.3976 21.3127 54.7864 21.4133 55.2289 21.4133C55.6714 21.4133 56.0602 21.3127 56.3954 21.1117C56.7306 20.897 56.9854 20.6021 57.1597 20.2267C57.3474 19.8378 57.4413 19.3886 57.4413 18.8791C57.4413 18.3696 57.3474 17.9271 57.1597 17.5517C56.9854 17.1763 56.7306 16.888 56.3954 16.6868C56.0602 16.4723 55.6714 16.365 55.2289 16.365C54.7864 16.365 54.3976 16.4723 54.0623 16.6868C53.7271 16.888 53.4657 17.1763 53.2779 17.5517C53.0902 17.9271 52.9964 18.3696 52.9964 18.8791ZM61.2581 18.7384C61.2581 17.7059 61.4659 16.8009 61.8816 16.0231C62.2973 15.2455 62.8671 14.6421 63.5912 14.213C64.3152 13.7705 65.1465 13.5493 66.0851 13.5493C66.8762 13.5493 67.5734 13.7102 68.1768 14.032C68.7936 14.3538 69.2092 14.7762 69.4238 15.2991L69.1221 15.5002L69.3635 13.8912H72.1591V23.3039C72.1591 24.4838 71.9311 25.5029 71.4753 26.361C71.0193 27.2325 70.3691 27.9029 69.5243 28.3722C68.693 28.8415 67.7008 29.0762 66.5476 29.0762C65.5823 29.0762 64.7108 28.8817 63.933 28.4929C63.1688 28.1175 62.5453 27.5811 62.0626 26.8839C61.5933 26.1867 61.3117 25.3822 61.2179 24.4704H64.3554C64.3822 25.0469 64.6102 25.4894 65.0392 25.7979C65.4817 26.1062 66.0448 26.2604 66.7287 26.2604C67.493 26.2604 68.0829 26.0459 68.4986 25.6168C68.9143 25.2011 69.1221 24.6447 69.1221 23.9475V21.8155L69.4036 22.077C69.1891 22.6 68.7735 23.0223 68.1567 23.3441C67.5399 23.6659 66.8293 23.8268 66.0248 23.8268C65.0996 23.8268 64.2749 23.6123 63.5509 23.1832C62.8403 22.7542 62.2771 22.1575 61.8614 21.3932C61.4592 20.6289 61.2581 19.744 61.2581 18.7384ZM64.3956 18.6579C64.3956 19.1406 64.4962 19.5696 64.6973 19.945C64.8985 20.3206 65.1666 20.6155 65.5019 20.83C65.837 21.0312 66.2057 21.1317 66.6081 21.1317C67.0907 21.1317 67.5131 21.0312 67.8752 20.83C68.2506 20.6155 68.5389 20.3206 68.7399 19.945C68.9544 19.5696 69.0617 19.1406 69.0617 18.6579C69.0617 18.1618 68.9544 17.7394 68.7399 17.3908C68.5254 17.0288 68.2304 16.7472 67.855 16.5461C67.493 16.3449 67.0706 16.2444 66.5879 16.2444C66.1857 16.2444 65.817 16.3449 65.4817 16.5461C65.1465 16.7472 64.8783 17.0288 64.6773 17.3908C64.4895 17.7529 64.3956 18.1752 64.3956 18.6579ZM73.2629 18.8992C73.2629 17.84 73.4842 16.9148 73.9266 16.1237C74.3691 15.3192 74.9926 14.6957 75.7971 14.2532C76.6016 13.8107 77.5402 13.5895 78.6129 13.5895C79.6855 13.5895 80.6174 13.8107 81.4085 14.2532C82.213 14.6957 82.8365 15.3192 83.2789 16.1237C83.7214 16.9148 83.9426 17.84 83.9426 18.8992C83.9426 19.9585 83.7214 20.8837 83.2789 21.6748C82.8365 22.4659 82.213 23.0826 81.4085 23.5251C80.6174 23.9676 79.6855 24.1888 78.6129 24.1888C77.5402 24.1888 76.6016 23.9676 75.7971 23.5251C74.9926 23.0826 74.3691 22.4659 73.9266 21.6748C73.4842 20.8837 73.2629 19.9585 73.2629 18.8992ZM76.3803 18.8791C76.3803 19.3886 76.4742 19.8378 76.6619 20.2267C76.8496 20.6021 77.1111 20.897 77.4464 21.1117C77.7815 21.3127 78.1704 21.4133 78.6129 21.4133C79.0554 21.4133 79.4442 21.3127 79.7794 21.1117C80.1146 20.897 80.3693 20.6021 80.5437 20.2267C80.7314 19.8378 80.8252 19.3886 80.8252 18.8791C80.8252 18.3696 80.7314 17.9271 80.5437 17.5517C80.3693 17.1763 80.1146 16.888 79.7794 16.6868C79.4442 16.4723 79.0554 16.365 78.6129 16.365C78.1704 16.365 77.7815 16.4723 77.4464 16.6868C77.1111 16.888 76.8496 17.1763 76.6619 17.5517C76.4742 17.9271 76.3803 18.3696 76.3803 18.8791ZM85.2455 23.9475V13.8912H88.3629V23.9475H85.2455ZM86.8142 12.3224C86.3181 12.3224 85.8957 12.1548 85.5471 11.8196C85.2119 11.471 85.0443 11.0486 85.0443 10.5525C85.0443 10.0564 85.2119 9.64077 85.5471 9.30551C85.8957 8.97034 86.3181 8.80273 86.8142 8.80273C87.2969 8.80273 87.7059 8.97034 88.041 9.30551C88.3897 9.64077 88.564 10.0564 88.564 10.5525C88.564 11.0486 88.3897 11.471 88.041 11.8196C87.7059 12.1548 87.2969 12.3224 86.8142 12.3224ZM90.3787 28.7745V13.8912H93.215L93.3752 15.1181C93.6571 14.6488 94.1065 14.2734 94.7227 13.9917C95.3398 13.7102 96.0039 13.5694 96.714 13.5694C97.6526 13.5694 98.4705 13.7772 99.1677 14.1929C99.865 14.6086 100.415 15.2052 100.817 15.983C101.219 16.7472 101.434 17.6724 101.461 18.7585C101.488 19.8177 101.313 20.763 100.938 21.5943C100.562 22.4122 100.02 23.0558 99.3087 23.5251C98.5976 23.9945 97.7401 24.229 96.7343 24.229C96.0371 24.229 95.3868 24.1084 94.7835 23.8671C94.1802 23.6257 93.7308 23.3173 93.436 22.9419V28.7745H90.3787ZM93.4959 18.9194C93.4959 19.4154 93.5963 19.8579 93.798 20.2468C94.0126 20.6222 94.3009 20.9172 94.6629 21.1317C95.0377 21.3329 95.4669 21.4334 95.9496 21.4334C96.446 21.4334 96.8688 21.3262 97.2169 21.1117C97.5789 20.897 97.8543 20.6021 98.0413 20.2267C98.243 19.8512 98.3434 19.4154 98.3434 18.9194C98.3434 18.4232 98.243 17.9874 98.0413 17.612C97.8543 17.2366 97.5789 16.9416 97.2169 16.7271C96.8688 16.5126 96.446 16.4053 95.9496 16.4053C95.4669 16.4053 95.0377 16.5126 94.6629 16.7271C94.3009 16.9282 94.0126 17.2165 93.798 17.5919C93.5963 17.9674 93.4959 18.4098 93.4959 18.9194ZM101.992 20.7697H104.788C104.788 21.1183 104.901 21.3932 105.13 21.5943C105.371 21.7954 105.719 21.896 106.175 21.896C106.443 21.896 106.665 21.8625 106.839 21.7954C107.027 21.7284 107.168 21.6345 107.261 21.5139C107.369 21.3798 107.422 21.2323 107.422 21.0714C107.422 20.897 107.362 20.7496 107.242 20.6289C107.134 20.5083 106.946 20.4144 106.678 20.3474L104.909 19.8847C103.916 19.6166 103.212 19.221 102.797 18.6981C102.38 18.1752 102.173 17.5785 102.173 16.9081C102.173 16.2376 102.341 15.6544 102.676 15.1583C103.024 14.6488 103.494 14.2599 104.083 13.9917C104.674 13.7102 105.337 13.5694 106.075 13.5694C107.187 13.5694 108.099 13.8778 108.81 14.4946C109.534 15.0979 109.916 15.9225 109.957 16.9684H107.161C107.174 16.6198 107.074 16.3449 106.859 16.1438C106.645 15.9293 106.363 15.822 106.015 15.822C105.706 15.822 105.451 15.9025 105.25 16.0634C105.062 16.2108 104.969 16.4187 104.969 16.6868C104.969 16.9416 105.062 17.1293 105.25 17.25C105.438 17.3573 105.692 17.4511 106.015 17.5316L107.804 17.9741C108.636 18.1752 109.266 18.5171 109.695 18.9998C110.125 19.4825 110.338 20.0993 110.338 20.8502C110.338 21.8826 109.957 22.7005 109.192 23.3039C108.428 23.9072 107.436 24.209 106.216 24.209C104.956 24.209 103.942 23.8939 103.179 23.2637C102.427 22.6201 102.032 21.7887 101.992 20.7697ZM115.281 24.209C114.101 24.209 113.189 23.8402 112.545 23.1028C111.902 22.3653 111.58 21.3999 111.58 20.2065V13.8912H114.677V19.0803C114.677 20.0188 114.845 20.649 115.18 20.9708C115.515 21.2926 115.958 21.4535 116.507 21.4535C117.219 21.4535 117.708 21.2524 117.976 20.8502C118.244 20.4479 118.378 19.8714 118.378 19.1204V13.8912H121.476V23.9475H118.56L118.358 22.8212C118.049 23.2368 117.614 23.5721 117.051 23.8268C116.487 24.0816 115.898 24.209 115.281 24.209ZM126.588 23.9475H123.471V13.8912H126.367L126.588 15.6209L126.247 15.2588C126.515 14.7493 126.917 14.3404 127.453 14.032C128.003 13.7102 128.593 13.5493 129.224 13.5493C130.215 13.5493 130.993 13.7705 131.557 14.213C132.133 14.6554 132.549 15.2387 132.803 15.9628H132.32C132.481 15.2387 132.87 14.6554 133.487 14.213C134.104 13.7705 134.841 13.5493 135.699 13.5493C137 13.5493 137.959 13.8979 138.576 14.5951C139.192 15.2924 139.501 16.2175 139.501 17.3707V23.9475H136.484V18.135C136.484 17.5047 136.329 17.0354 136.021 16.7271C135.726 16.4187 135.331 16.2645 134.835 16.2645C134.54 16.2645 134.258 16.3316 133.99 16.4656C133.722 16.5862 133.5 16.8075 133.326 17.1293C133.152 17.4378 133.064 17.8802 133.064 18.4567V23.9475H130.007V18.135C130.007 17.5047 129.86 17.0422 129.565 16.7472C129.27 16.4388 128.874 16.2846 128.378 16.2846C128.083 16.2846 127.795 16.3517 127.513 16.4858C127.245 16.6064 127.024 16.8277 126.85 17.1495C126.676 17.4578 126.588 17.8936 126.588 18.4567V23.9475Z" fill="white" fill-opacity="0.9"/>
</g>
<defs>
<clipPath id="clip0_2042_1351">
<rect width="140.921" height="35" fill="white"/>
</clipPath>
</defs>
</svg>
