<svg width="20" height="20" viewBox="0 0 20 20" fill="none" xmlns="http://www.w3.org/2000/svg">
<path d="M17.0217 8.41462C15.9959 7.21046 14.1759 5.39629 11.3284 3.59879C8.98669 2.12046 6.90252 1.33546 5.56585 0.937123C4.81585 0.713789 4.02085 0.852956 3.38919 1.32379C2.75752 1.79546 2.39502 2.51712 2.39502 3.30462V16.6963C2.39502 17.4838 2.75835 18.2055 3.38919 18.6771C3.82335 19.0005 4.33502 19.168 4.85669 19.168C5.09335 19.168 5.33169 19.133 5.56669 19.0638C6.90335 18.6655 8.98752 17.8805 11.3292 16.4021C14.1767 14.6038 15.9967 12.7905 17.0225 11.5855C17.8042 10.6671 17.8034 9.33296 17.0217 8.41462Z" fill="white"/>
</svg>
