<svg width="32" height="32" viewBox="0 0 32 32" fill="none" xmlns="http://www.w3.org/2000/svg">
<path d="M12 5.33467V15.0013C12 16.2867 12.9213 17.332 14.204 17.332C14.9387 17.332 16.46 16.3067 16.46 16.3067L19.1947 14.6653H26.6653C29.6107 14.6653 31.9987 12.2773 31.9987 9.332V5.33333C32 2.388 29.612 0 26.6653 0H17.332C14.3867 0.00133333 11.9987 2.38933 12 5.33467ZM28 5.332C28.736 5.332 29.3333 5.92933 29.3333 6.66533V7.99867C29.3333 8.73467 28.736 9.332 28 9.332C27.264 9.332 26.6667 8.73467 26.6667 7.99867V6.66533C26.6667 5.92933 27.264 5.332 28 5.332ZM24 3.99867C24.736 3.99867 25.3333 4.596 25.3333 5.332V9.332C25.3333 10.068 24.736 10.6653 24 10.6653C23.264 10.6653 22.6667 10.068 22.6667 9.332V5.332C22.6667 4.596 23.264 3.99867 24 3.99867ZM20 2.66533C20.736 2.66533 21.3333 3.26267 21.3333 3.99867V10.6653C21.3333 11.4013 20.736 11.9987 20 11.9987C19.264 11.9987 18.6667 11.4013 18.6667 10.6653V3.99867C18.6667 3.26267 19.264 2.66533 20 2.66533ZM16 10.6653C15.264 10.6653 14.6667 10.068 14.6667 9.332V5.332C14.6667 4.596 15.264 3.99867 16 3.99867C16.736 3.99867 17.3333 4.596 17.3333 5.332V9.332C17.3333 10.068 16.736 10.6653 16 10.6653ZM24.616 20H23.9493V19.9733C23.9493 19.0133 23.6773 18.1013 23.2053 17.2947H19.8827L17.84 18.5213C16.8387 19.188 15.4093 19.9613 14.1533 19.9613C11.4213 19.9613 9.28267 17.7667 9.28267 14.964V14.6627L7.996 14.6653C5.05733 14.6653 2.66667 17.0587 2.66667 19.9987H2C0.897333 19.9987 0 20.896 0 21.9987V24.6653C0 25.768 0.897333 26.6653 2 26.6653H2.66667C2.66667 29.6067 5.05867 31.9987 8 31.9987H18.616C21.5573 31.9987 23.9493 29.6067 23.9493 26.6653H24.616C25.7187 26.6653 26.616 25.768 26.616 24.6653V21.9987C26.616 20.896 25.7187 19.9987 24.616 19.9987V20ZM9.33333 26C9.33333 26 9.32933 26 9.328 26C9.32667 26 9.324 26 9.32267 26C8.21867 26 7.32267 25.104 7.32267 24C7.32267 22.896 8.21867 22 9.32267 22H9.328C9.328 22 9.332 22 9.33333 22C10.4373 22 11.3333 22.896 11.3333 24C11.3333 25.104 10.4373 26 9.33333 26ZM17.3453 26C17.3453 26 17.3413 26 17.34 26C17.3387 26 17.336 26 17.3347 26C16.2307 26 15.3347 25.104 15.3347 24C15.3347 22.896 16.2307 22 17.3347 22H17.34C17.34 22 17.344 22 17.3453 22C18.4493 22 19.3453 22.896 19.3453 24C19.3453 25.104 18.4493 26 17.3453 26Z" fill="#997EFF"/>
</svg>
