<svg width="32" height="32" viewBox="0 0 32 32" fill="none" xmlns="http://www.w3.org/2000/svg">
<g clip-path="url(#clip0_180_2215)">
<path d="M28.0001 27.336C28.0001 28.44 27.1041 29.336 26.0001 29.336C24.8961 29.336 24.0001 28.44 24.0001 27.336C24.0001 26.232 24.8961 25.336 26.0001 25.336C27.1041 25.336 28.0001 26.232 28.0001 27.336ZM2.00013 4.00269C0.8948 4.00269 0.000133669 4.89736 0.000133669 6.00269C0.000133669 7.10803 0.896134 8.00269 2.00013 8.00269C3.10413 8.00269 4.00013 7.10669 4.00013 6.00269C4.00013 4.89869 3.10413 4.00269 2.00013 4.00269ZM8.6668 0.00269229C7.56147 0.00269229 6.6668 0.897359 6.6668 2.00269C6.6668 3.10803 7.5628 4.00269 8.6668 4.00269C9.7708 4.00269 10.6668 3.10669 10.6668 2.00269C10.6668 0.898692 9.7708 0.00269229 8.6668 0.00269229ZM30.6668 12C31.2268 12 31.7281 12.3507 31.9201 12.876C32.1121 13.4014 31.9548 13.992 31.5268 14.352L28.3735 16.9214L29.6775 20.8947C29.8561 21.432 29.6748 22.024 29.2255 22.3707C28.7748 22.716 28.1575 22.74 27.6841 22.432L24.0135 20.0414L20.4028 22.4587C20.1775 22.6094 19.9188 22.684 19.6601 22.684C19.3788 22.684 19.0961 22.596 18.8601 22.4187C18.4068 22.08 18.2175 21.4907 18.3881 20.952L19.6415 16.932L16.4721 14.3534C16.0455 13.992 15.8895 13.4027 16.0828 12.8774C16.2761 12.3534 16.7761 12.004 17.3348 12.004H21.3335L22.7495 8.20136C22.9441 7.68003 23.4428 7.33336 23.9988 7.33336C24.5548 7.33336 25.0535 7.67869 25.2481 8.20136L26.6641 12.004H30.6641L30.6668 12.0014V12ZM10.1988 12.272C10.5295 11.92 10.8681 11.5694 11.2175 11.22C18.6175 3.82136 26.2948 1.18269 28.5561 3.44536C29.3561 4.24536 29.5455 5.77203 29.0881 7.74403C28.9215 8.46136 29.3681 9.17736 30.0868 9.34403C30.8015 9.51069 31.5201 9.06403 31.6868 8.34536C32.5481 4.62803 31.4868 2.60403 30.4428 1.56003C26.6401 -2.24264 17.5668 1.10136 9.33347 9.33469C8.96413 9.70403 8.60547 10.076 8.2548 10.448C7.7508 10.9854 7.7788 11.8294 8.31613 12.332C8.57347 12.5734 8.90013 12.6934 9.22813 12.6934C9.58413 12.6934 9.93747 12.552 10.1988 12.272ZM17.6241 27.024C18.2175 26.588 18.3441 25.7534 17.9068 25.16C17.4708 24.5667 16.6361 24.4414 16.0428 24.876C10.6081 28.8774 5.30947 30.4267 3.44147 28.56C2.6508 27.7694 2.60413 26.4454 2.70413 25.4747C2.78013 24.7414 2.2468 24.0867 1.5148 24.0107C0.7828 23.952 0.1268 24.4694 0.0521337 25.2014C-0.175866 27.42 0.344134 29.2334 1.55613 30.4467C2.5908 31.4814 4.0428 31.9867 5.78813 31.9867C9.00013 31.9867 13.2041 30.2774 17.6228 27.0254L17.6241 27.024ZM9.89747 17.1547L7.36547 16.2214L6.3988 13.656C6.20147 13.0667 5.56413 12.748 4.9748 12.9454C4.64013 13.0574 4.37613 13.32 4.26413 13.656L3.30813 16.1974L0.768134 17.1547C0.1788 17.352 -0.139866 17.9894 0.057467 18.5787C0.169467 18.9134 0.432134 19.1774 0.768134 19.2894L3.33213 20.2547L4.26413 22.7854C4.37613 23.12 4.6388 23.384 4.9748 23.496C5.56413 23.6934 6.20147 23.3747 6.3988 22.7854L7.34147 20.2307L9.8988 19.2894C10.2335 19.1774 10.4975 18.9147 10.6095 18.5787C10.8068 17.9894 10.4868 17.352 9.89747 17.1547Z" fill="#997EFF"/>
</g>
<defs>
<clipPath id="clip0_180_2215">
<rect width="32" height="32" fill="white"/>
</clipPath>
</defs>
</svg>
