<svg width="32" height="32" viewBox="0 0 32 32" fill="none" xmlns="http://www.w3.org/2000/svg">
<g clip-path="url(#clip0_180_2227)">
<path d="M26.6667 12H8C5.05867 12 2.66667 14.392 2.66667 17.3333V24C2.66667 26.9413 5.05867 29.3333 8 29.3333H13.1947L15.5613 31.3267C16.0707 31.7787 16.7093 32.0027 17.344 32.0027C17.968 32.0027 18.5853 31.7867 19.0667 31.3573L21.516 29.332H26.6653C29.6067 29.332 31.9987 26.94 31.9987 23.9987V17.332C31.9987 14.3907 29.6067 11.9987 26.6653 11.9987L26.6667 12ZM11.7627 20.5013L10.1853 21.7867L10.8373 23.7733C10.9267 24.0427 10.8373 24.3387 10.612 24.5107C10.3867 24.6827 10.0787 24.6947 9.84133 24.5413L8.00533 23.3453L6.2 24.5533C6.088 24.628 5.95867 24.6653 5.82933 24.6653C5.688 24.6653 5.548 24.6213 5.42933 24.532C5.20267 24.3627 5.108 24.068 5.19333 23.7987L5.82 21.788L4.23467 20.4987C4.02133 20.3173 3.944 20.0227 4.04 19.7613C4.136 19.4987 4.38667 19.324 4.66533 19.324H6.66533L7.37333 17.3373C7.47067 17.076 7.72 16.904 7.99867 16.904C8.27733 16.904 8.52667 17.0773 8.624 17.3373L9.332 19.324H11.332C11.612 19.324 11.8627 19.4987 11.9587 19.7627C12.0547 20.0267 11.9773 20.3213 11.7627 20.5013ZM21.096 20.5013L19.5187 21.7867L20.1707 23.7733C20.26 24.0427 20.1707 24.3387 19.9453 24.5107C19.72 24.6827 19.412 24.6947 19.1747 24.5413L17.3387 23.3453L15.5333 24.5533C15.4213 24.628 15.292 24.6653 15.1627 24.6653C15.0213 24.6653 14.8813 24.6213 14.7627 24.532C14.536 24.3627 14.4413 24.068 14.5267 23.7987L15.1533 21.788L13.568 20.4987C13.3547 20.3173 13.2773 20.0227 13.3733 19.7613C13.4693 19.4987 13.72 19.324 13.9987 19.324H15.9987L16.7067 17.3373C16.804 17.076 17.0533 16.904 17.332 16.904C17.6107 16.904 17.86 17.0773 17.9573 17.3373L18.6653 19.324H20.6653C20.9453 19.324 21.196 19.4987 21.292 19.7627C21.388 20.0267 21.3107 20.3213 21.096 20.5013ZM30.4293 20.5013L28.852 21.7867L29.504 23.7733C29.5933 24.0427 29.504 24.3387 29.2787 24.5107C29.0533 24.6827 28.7453 24.6947 28.508 24.5413L26.672 23.3453L24.8667 24.5533C24.7547 24.628 24.6253 24.6653 24.496 24.6653C24.3547 24.6653 24.2147 24.6213 24.096 24.532C23.8693 24.3627 23.7747 24.068 23.86 23.7987L24.4867 21.788L22.9013 20.4987C22.688 20.3173 22.6107 20.0227 22.7067 19.7613C22.8027 19.4987 23.0533 19.324 23.332 19.324H25.332L26.04 17.3373C26.1373 17.076 26.3867 16.904 26.6653 16.904C26.944 16.904 27.1933 17.0773 27.2907 17.3373L27.9987 19.324H29.9987C30.2787 19.324 30.5293 19.4987 30.6253 19.7627C30.7213 20.0267 30.6427 20.3213 30.428 20.5013H30.4293ZM6.66667 9.33333C2.99067 9.33333 0 12.324 0 16V5.33333C0 2.388 2.388 0 5.33333 0H21.3333C24.2787 0 26.6667 2.388 26.6667 5.33333V9.33333H6.66667ZM18.6667 6.66667H21.3333C22.0693 6.66667 22.6667 6.06933 22.6667 5.33333C22.6667 4.59733 22.0693 4 21.3333 4H18.6667C17.9307 4 17.3333 4.59733 17.3333 5.33333C17.3333 6.06933 17.9307 6.66667 18.6667 6.66667ZM5.33333 6.66667H13.3333C14.0693 6.66667 14.6667 6.06933 14.6667 5.33333C14.6667 4.59733 14.0693 4 13.3333 4H5.33333C4.59733 4 4 4.59733 4 5.33333C4 6.06933 4.59733 6.66667 5.33333 6.66667Z" fill="#997EFF"/>
</g>
<defs>
<clipPath id="clip0_180_2227">
<rect width="32" height="32" fill="white"/>
</clipPath>
</defs>
</svg>
